<?xml version="1.0" encoding="utf-8"?>
<!-- Generator: Adobe Illustrator 26.4.1, SVG Export Plug-In . SVG Version: 6.00 Build 0)  -->
<svg version="1.1" id="Capa_1" xmlns="http://www.w3.org/2000/svg" xmlns:xlink="http://www.w3.org/1999/xlink" x="0px" y="0px"
	 viewBox="0 0 409 138.7" style="enable-background:new 0 0 409 138.7;" xml:space="preserve">
<style type="text/css">
	.st0{fill:#007591;}
	.st1{fill:#B7B9BB;}
</style>
<g>
	<g id="_x33_aAa8F.tif_00000070841359020982074550000004246166506030579639_">
		<g>
			<path class="st0" d="M236.7,88.3c0-1.2-0.6-1.9-1.9-1.9c-1.6,0-3.1,0-4.7,0h-0.4v-1.8h-21v1.8h-0.4c-1.5,0-3,0-4.5,0
				c-1.3,0-1.6,0.2-2.1,1.4v5.3c0.1,0.6,0.2,1.2,0.4,1.8c1,3,3.2,4.7,6.2,5.3c0.3,0.1,0.4,0.2,0.4,0.4c0,1.6,0.4,3.2,1.2,4.7
				c1.4,2.7,3.7,4.5,6.6,5.4c0.1,0,0.2,0.1,0.4,0.1c0,0.1,0,0.2,0,0.2c-0.4,1.1-0.7,2.1-1.1,3.2c-0.1,0.2-0.2,0.3-0.4,0.3
				c-1.2,0-2.4,0-3.6,0c-0.9,0-1.5,0.4-1.8,1.3c-0.4,1.2-0.8,2.4-1.3,3.6c0,0.1-0.1,0.2-0.1,0.3h20.9c0-0.1-0.1-0.2-0.1-0.3
				c-0.4-1.2-0.9-2.4-1.3-3.7c-0.3-0.8-0.9-1.2-1.7-1.2c-1.2,0-2.3,0-3.5,0h-0.4c-0.4-1.2-0.8-2.4-1.2-3.6c0.7-0.3,1.4-0.5,2.1-0.8
				c3.1-1.5,5.1-3.9,5.8-7.3c0.2-0.7,0.2-1.4,0.2-2.2c0-0.2,0.1-0.3,0.3-0.3c3.2-0.6,5.3-2.4,6.3-5.5c0.2-0.8,0.3-1.6,0.4-2.4
				C236.8,91,236.7,89.6,236.7,88.3z M208.7,96.7c-1-0.3-1.9-0.9-2.5-1.7c-0.7-0.9-1-1.8-1-2.9c0-0.7,0-1.4,0-2.2h3.5V96.7z
				 M233,93.7c-0.5,1.4-1.4,2.4-2.8,2.9c-0.1,0-0.2,0.1-0.4,0.1v-6.8h3.5c0,0.4,0,0.8,0,1.2C233.2,92,233.3,92.9,233,93.7z"/>
		</g>
	</g>
	<g>
		<path class="st0" d="M263.5,104.4h-12.6v11.7h14v3.5h-18.2V87.3h17.5v3.5h-13.3V101h12.6V104.4z"/>
		<path class="st0" d="M275.8,119.7c-0.5,0-0.9-0.3-1.2-0.8L266.3,96c-0.2-0.4-0.2-0.7-0.1-0.8c0.1-0.1,0.3-0.2,0.7-0.2h1.3
			c0.4,0,0.8,0.1,0.9,0.2s0.3,0.3,0.5,0.7l5.7,15.8c0.3,1,0.7,2.4,1.2,4.4h0.1c0.6-2.4,1.1-3.9,1.2-4.4l5.6-15.8
			c0.1-0.4,0.2-0.6,0.4-0.7c0.1-0.1,0.5-0.1,0.9-0.1h1.4c0.4,0,0.6,0.1,0.7,0.2c0.1,0.1,0.1,0.4-0.1,0.8l-8.4,22.9
			c-0.2,0.5-0.6,0.8-1.1,0.8H275.8z"/>
		<path class="st0" d="M300,120.3c-3.1,0-5.5-0.9-7.1-2.6c-1.6-1.7-2.4-4.1-2.4-7.1v-6.2c0-3.2,0.8-5.7,2.5-7.5
			c1.6-1.8,4-2.7,7.1-2.7s5.5,0.9,7.1,2.7c1.6,1.8,2.4,4.2,2.4,7.2v2.6c0,0.9-0.4,1.4-1.3,1.4h-14.5v2.7c0,2,0.5,3.6,1.6,4.8
			c1.1,1.2,2.6,1.7,4.7,1.7c3,0,5.2-1.3,6.4-3.9c0.3-0.5,0.7-0.7,1.2-0.4l1.1,0.6c0.6,0.3,0.7,0.8,0.3,1.3
			C307.4,118.5,304.3,120.3,300,120.3z M293.8,105.6h12.7V104c0-2.2-0.5-3.9-1.6-5.1c-1.1-1.2-2.6-1.8-4.7-1.8
			c-2.1,0-3.7,0.6-4.7,1.8c-1.1,1.2-1.6,2.9-1.6,5.1V105.6z"/>
		<path class="st0" d="M315.9,119.6c-0.5,0-0.8-0.3-0.8-0.9V98.5c0-0.7,0.1-1.3,0.3-1.7c0.2-0.4,0.7-0.7,1.3-1
			c2.5-1.1,5.2-1.6,8.1-1.6c5.8,0,8.6,3.1,8.6,9.4v15.1c0,0.6-0.3,0.9-0.8,0.9H331c-0.5,0-0.8-0.3-0.8-0.9v-15
			c0-4.3-1.9-6.5-5.8-6.5c-2.1,0-3.9,0.4-5.3,1.1c-0.5,0.2-0.7,0.6-0.7,1.2v19.3c0,0.6-0.3,0.9-0.8,0.9H315.9z"/>
		<path class="st0" d="M351,119.6c-1.7,0-3.1-0.1-4.1-0.3c-1-0.2-1.9-0.7-2.7-1.3c-0.8-0.7-1.3-1.6-1.6-2.8
			c-0.3-1.2-0.5-2.8-0.5-4.7V98h-3.7c-0.5,0-0.8-0.3-0.8-0.9v-1.2c0-0.3,0.1-0.5,0.2-0.7c0.1-0.1,0.3-0.2,0.6-0.2h3.7v-4.9
			c0-0.3,0.1-0.5,0.2-0.7c0.1-0.1,0.3-0.2,0.6-0.2h1.6c0.3,0,0.5,0.1,0.6,0.2c0.1,0.1,0.2,0.4,0.2,0.7v4.9h5.6
			c0.3,0,0.5,0.1,0.6,0.2c0.1,0.1,0.2,0.4,0.2,0.7v1.2c0,0.6-0.3,0.9-0.8,0.9h-5.6v12.3c0,2.6,0.4,4.3,1.1,5.1
			c0.8,0.8,2.2,1.1,4.4,1.1c0.5,0,0.8,0.3,0.8,0.8v1.4C351.8,119.3,351.5,119.6,351,119.6z"/>
		<path class="st0" d="M365.3,120.3c-3,0-5.3-0.8-7-2.3c-1.7-1.6-2.5-3.7-2.5-6.5v-8.4c0-2.8,0.8-4.9,2.5-6.5c1.7-1.6,4-2.4,7-2.4
			c3,0,5.4,0.8,7.1,2.4c1.7,1.6,2.6,3.7,2.6,6.5v8.4c0,2.8-0.9,4.9-2.6,6.5C370.6,119.5,368.3,120.3,365.3,120.3z M365.3,117.3
			c1.9,0,3.5-0.5,4.7-1.6s1.7-2.5,1.7-4.3v-8.4c0-1.8-0.6-3.3-1.7-4.3s-2.7-1.6-4.7-1.6c-1.9,0-3.4,0.5-4.6,1.6
			c-1.1,1-1.7,2.5-1.7,4.3v8.4c0,1.8,0.6,3.3,1.7,4.3C361.8,116.8,363.3,117.3,365.3,117.3z"/>
		<path class="st0" d="M389.3,120.3c-2.4,0-4.4-0.5-5.9-1.4s-2.7-2.4-3.4-4.5c-0.2-0.6,0-1,0.5-1.2l1.5-0.4c0.5-0.2,0.9,0,1.1,0.5
			c0.9,2.8,3,4.1,6.2,4.1c3.8,0,5.8-1.4,5.8-4.3c0-1.6-0.5-2.6-1.4-3.2c-0.9-0.6-2.4-1-4.6-1.2c-1.4-0.1-2.5-0.3-3.4-0.5
			c-0.9-0.2-1.8-0.6-2.7-1.1c-0.9-0.5-1.6-1.2-2-2.2c-0.4-1-0.7-2.1-0.7-3.5c0-2.2,0.8-3.9,2.3-5.2c1.5-1.3,3.7-1.9,6.4-1.9
			c4.5,0,7.4,1.7,8.7,5.1c0.3,0.6,0.2,1.1-0.4,1.3l-1.2,0.5c-0.5,0.2-0.9,0-1.2-0.4c-0.9-2.4-2.9-3.6-5.9-3.6
			c-1.8,0-3.2,0.4-4.1,1.1c-0.9,0.7-1.4,1.8-1.4,3.1c0,0.7,0.1,1.4,0.3,1.9c0.2,0.5,0.5,0.9,0.8,1.2c0.3,0.3,0.8,0.5,1.4,0.7
			c0.6,0.2,1.2,0.3,1.7,0.4c0.5,0.1,1.2,0.2,2.1,0.3c2.8,0.3,4.9,1,6.3,2c1.5,1,2.2,2.7,2.2,5.2c0,2.3-0.8,4-2.3,5.3
			C394.5,119.6,392.2,120.3,389.3,120.3z"/>
	</g>
	<g>
		<g>
			<path class="st0" d="M68.4,38.2c0,8.6-3.5,16.5-9.2,22.1l-3.4-3.4c4.8-4.8,7.8-11.4,7.8-18.7c0-14.6-11.9-26.5-26.5-26.5
				c-7.3,0-13.9,3-18.7,7.7c-1.6,1.6-3,3.4-4.2,5.4l-3.5-3.5c1.2-1.9,2.7-3.7,4.3-5.3c5.7-5.6,13.5-9.1,22.1-9.1
				C54.4,6.9,68.4,20.9,68.4,38.2z"/>
			<path class="st1" d="M61.2,38.2c0,6.6-2.7,12.7-7.1,17c-1.6,1.6-3.5,3-5.5,4.1L45,55.7c2.1-1,4.1-2.3,5.7-3.9
				c3.5-3.5,5.6-8.3,5.6-13.6c0-10.6-8.6-19.3-19.3-19.3c-5.3,0-10.1,2.1-13.6,5.6L20,21.1c4.4-4.3,10.4-7,17-7
				C50.4,14.1,61.2,24.9,61.2,38.2z"/>
			<path class="st1" d="M8.3,45.8c0-8.6,3.5-16.5,9.2-22.1l3.4,3.4c-4.8,4.8-7.8,11.4-7.8,18.7c0,14.6,11.9,26.5,26.5,26.5
				c7.3,0,13.9-3,18.7-7.7c1.6-1.6,3-3.4,4.2-5.4l3.5,3.5c-1.2,1.9-2.7,3.7-4.3,5.3c-5.7,5.6-13.5,9.1-22.1,9.1
				C22.3,77.1,8.3,63.1,8.3,45.8z"/>
			<path class="st0" d="M15.5,45.8c0-6.6,2.7-12.7,7.1-17c1.6-1.6,3.5-3,5.5-4.1l3.6,3.6c-2.1,1-4.1,2.3-5.7,3.9
				c-3.5,3.5-5.6,8.3-5.6,13.6C20.3,56.4,29,65,39.6,65c5.3,0,10.1-2.1,13.6-5.6l3.4,3.4c-4.4,4.3-10.4,7-17,7
				C26.3,69.9,15.5,59.1,15.5,45.8z"/>
		</g>
		<g>
			<g>
				<g>
					<path class="st0" d="M105.4,22.2c-3.2-2.9-7.1-4.3-11.9-4.3H78v48.2h5V46.9h12c4.1,0,7.6-1.3,10.5-4c3-2.7,4.5-6,4.5-9.9
						C110.1,28.6,108.6,25,105.4,22.2z M101.9,39.6c-2.1,1.9-4.7,2.9-7.8,2.9h-11V22.4h10.7c3,0,5.6,0.9,7.8,2.7
						c2.2,1.8,3.4,4,3.5,6.8C105.3,35,104.2,37.6,101.9,39.6z"/>
					<path class="st0" d="M144.7,35.2c-3.5-3.7-7.8-5.6-12.8-5.7c-5.2-0.2-9.6,1.6-13.3,5.3c-3.7,3.7-5.6,8.2-5.6,13.4
						c0,5,1.7,9.3,5.2,13c3.5,3.6,7.6,5.5,12.5,5.7c5.6,0.2,10.4-2,14.2-6.4v5.6h4.8V48.1C149.8,43.2,148.2,38.9,144.7,35.2z
						 M140.9,58.1c-2.8,2.9-6.1,4.3-10.1,4.1c-3.6-0.2-6.7-1.7-9.3-4.5c-2.6-2.8-3.8-6.1-3.7-9.9c0-3.8,1.4-7.1,4.1-9.7
						c2.7-2.7,5.9-4,9.7-4c3.6,0,6.8,1.3,9.4,4c2.6,2.7,3.9,5.9,4,9.7C145,51.8,143.6,55.2,140.9,58.1z"/>
					<path class="st0" d="M193.2,48.4V17.9h-4.8V36c-3.5-4-7.9-6.1-13.1-6.3c-5.1-0.2-9.5,1.6-13.3,5.4c-3.7,3.7-5.6,8.2-5.6,13.4
						c0,5,1.7,9.3,5.2,13c3.4,3.6,7.7,5.5,12.6,5.6c5.1,0.2,9.6-1.6,13.4-5.4C191.5,58,193.3,53.5,193.2,48.4z M184.4,58.3
						c-2.8,2.9-6.1,4.3-10.1,4.1c-3.7-0.1-6.8-1.6-9.4-4.4c-2.6-2.8-3.8-6.1-3.8-9.9c0-3.8,1.4-7.1,4.1-9.8c2.7-2.7,5.9-4,9.7-4
						c3.7,0,6.8,1.3,9.4,4c2.6,2.7,3.9,5.9,4,9.7C188.5,52,187.2,55.4,184.4,58.3z"/>
					<path class="st0" d="M236.5,47.3c0-4.4-1.7-8.4-5.1-12c-3.5-3.6-7.6-5.6-12.4-5.9c-5.3-0.3-9.9,1.5-13.8,5.4
						c-3.9,3.9-5.8,8.5-5.7,13.8c0.1,5.1,2,9.4,5.8,13.1c3.8,3.7,8.1,5.4,13,5.4c3.9,0,7.4-1.2,10.6-3.4c3.2-2.3,5.4-5.3,6.8-9.1
						h-5.1c-2.4,5.1-6.5,7.7-12.1,7.8c-3.6,0-6.8-1.1-9.5-3.4c-2.7-2.3-4.2-5.3-4.6-8.9h32.1V47.3z M204.4,45.4
						c0.7-3.4,2.3-6.1,4.9-8.2c2.6-2.1,5.6-3.1,9-3.1c3.4,0,6.4,1.1,8.8,3.2c2.5,2.1,4,4.8,4.7,8.1H204.4z"/>
					<path class="st0" d="M243.2,17.9v48.2h4.8V17.9H243.2z"/>
					<path class="st0" d="M299.4,17.9l-18,41.5l-17.3-41.5h-7.6v48.2h4.9V23.5l18,42.5h4.1l18.4-42.6v42.6h4.9V17.9H299.4z"/>
					<path class="st0" d="M345.7,52.3c-0.2-5.7-2.8-9.8-7.8-12.1c3.7-2.4,5.5-5.7,5.5-10c0-3.6-1.5-6.6-4.4-9
						c-2.8-2.3-6.1-3.3-10-3.3h-13.7v48.2h15.3c4.1,0,7.6-1.3,10.6-4C344.4,59.4,345.9,56.2,345.7,52.3z M320.4,22.3h8.6
						c2.7,0,4.9,0.7,6.7,2.1c2,1.5,3,3.5,3,6.1c0,2.3-0.9,4.3-2.9,5.7c-1.9,1.5-4.1,2.2-6.6,2.2h-8.8V22.3z M337.9,58.8
						c-2.1,1.7-5,2.6-8.7,2.6h-8.8V42.8h8.5c3.4,0,6.2,0.7,8.2,2.1c2.3,1.6,3.5,3.9,3.6,6.9C340.9,54.7,340,57.1,337.9,58.8z"/>
					<path class="st0" d="M376.4,17.9h-5.4l-21.6,48.2h6.1l6.8-16.3l2.1-4.3l9.4-22l9.2,22l1.7,4.3l6.9,16.3h5.4L376.4,17.9z"/>
				</g>
			</g>
		</g>
	</g>
</g>
</svg>
