<?xml version="1.0" encoding="utf-8"?>
<!-- Generator: Adobe Illustrator 25.3.1, SVG Export Plug-In . SVG Version: 6.00 Build 0)  -->
<svg version="1.1" id="Capa_1" xmlns="http://www.w3.org/2000/svg" xmlns:xlink="http://www.w3.org/1999/xlink" x="0px" y="0px"
	 viewBox="0 0 409 138.7" style="enable-background:new 0 0 409 138.7;" xml:space="preserve">
<style type="text/css">
	.st0{display:none;fill:#141414;}
	.st1{display:none;fill:#007591;}
	.st2{fill:#007591;}
	.st3{fill:#BDBFC1;}
	.st4{fill:#FFFFFF;}
	.st5{font-family:'PantonNarrow-Regular';}
	.st6{font-size:49.2175px;}
	.st7{display:none;}
	.st8{display:inline;}
	.st9{fill:none;stroke:#CFF3F9;stroke-width:0.5;stroke-miterlimit:10;}
</style>
<rect x="-4.3" y="-4.2" class="st0" width="417.7" height="147"/>
<g>
	<g>
		<text transform="matrix(1 0 0 1 230.5268 119.8668)" class="st4 st5 st6">Eventos</text>
		<g id="_x33_aAa8F.tif_1_">
			<g>
				<path class="st2" d="M228.3,88.5c0-1.2-0.6-1.9-1.9-1.9c-1.6,0-3.1,0-4.7,0h-0.4v-1.8h-21v1.8h-0.4c-1.5,0-3,0-4.5,0
					c-1.3,0-1.6,0.2-2.1,1.4v5.3c0.1,0.6,0.2,1.2,0.4,1.8c1,3,3.2,4.7,6.2,5.3c0.3,0.1,0.4,0.2,0.4,0.4c0,1.6,0.4,3.2,1.2,4.7
					c1.4,2.7,3.7,4.5,6.6,5.4c0.1,0,0.2,0.1,0.4,0.1c0,0.1,0,0.2,0,0.2c-0.4,1.1-0.7,2.1-1.1,3.2c-0.1,0.2-0.2,0.3-0.4,0.3
					c-1.2,0-2.4,0-3.6,0c-0.9,0-1.5,0.4-1.8,1.3c-0.4,1.2-0.8,2.4-1.3,3.6c0,0.1-0.1,0.2-0.1,0.3h20.9c0-0.1-0.1-0.2-0.1-0.3
					c-0.4-1.2-0.9-2.4-1.3-3.7c-0.3-0.8-0.9-1.2-1.7-1.2c-1.2,0-2.3,0-3.5,0h-0.4c-0.4-1.2-0.8-2.4-1.2-3.6c0.7-0.3,1.4-0.5,2.1-0.8
					c3.1-1.5,5.1-3.9,5.8-7.3c0.2-0.7,0.2-1.4,0.2-2.2c0-0.2,0.1-0.3,0.3-0.3c3.2-0.6,5.3-2.4,6.3-5.5c0.2-0.8,0.3-1.6,0.4-2.4
					C228.3,91.2,228.3,89.9,228.3,88.5z M200.3,97c-1-0.3-1.9-0.9-2.5-1.7c-0.7-0.9-1-1.8-1-2.9c0-0.7,0-1.4,0-2.2h3.5V97z
					 M224.5,94c-0.5,1.4-1.4,2.4-2.8,2.9c-0.1,0-0.2,0.1-0.4,0.1v-6.8h3.5c0,0.4,0,0.8,0,1.2C224.8,92.3,224.8,93.2,224.5,94z"/>
			</g>
		</g>
	</g>
	<g>
		<g>
			<path class="st2" d="M69.2,37.5c0,8.6-3.5,16.5-9.2,22.1l-3.4-3.4c4.8-4.8,7.8-11.4,7.8-18.7C64.4,22.9,52.5,11,37.9,11
				c-7.3,0-13.9,3-18.7,7.7c-1.6,1.6-3,3.4-4.2,5.4l-3.5-3.5c1.2-1.9,2.7-3.7,4.3-5.3c5.7-5.6,13.5-9.1,22.1-9.1
				C55.2,6.2,69.2,20.2,69.2,37.5z"/>
			<path class="st4" d="M62,37.5c0,6.6-2.7,12.7-7.1,17c-1.6,1.6-3.5,3-5.5,4.1L45.8,55c2.1-1,4.1-2.3,5.7-3.9
				c3.5-3.5,5.6-8.3,5.6-13.6c0-10.6-8.6-19.3-19.3-19.3c-5.3,0-10.1,2.1-13.6,5.6l-3.4-3.4c4.4-4.3,10.4-7,17-7
				C51.2,13.4,62,24.2,62,37.5z"/>
			<path class="st4" d="M9.1,45.1c0-8.6,3.5-16.5,9.2-22.1l3.4,3.4c-4.8,4.8-7.8,11.4-7.8,18.7c0,14.6,11.9,26.5,26.5,26.5
				c7.3,0,13.9-3,18.7-7.7c1.6-1.6,3-3.4,4.2-5.4l3.5,3.5c-1.2,1.9-2.7,3.7-4.3,5.3c-5.7,5.6-13.5,9.1-22.1,9.1
				C23.1,76.4,9.1,62.4,9.1,45.1z"/>
			<path class="st2" d="M16.3,45.1c0-6.6,2.7-12.7,7.1-17c1.6-1.6,3.5-3,5.5-4.1l3.6,3.6c-2.1,1-4.1,2.3-5.7,3.9
				c-3.5,3.5-5.6,8.3-5.6,13.6c0,10.6,8.6,19.3,19.3,19.3c5.3,0,10.1-2.1,13.6-5.6l3.4,3.4c-4.4,4.3-10.4,7-17,7
				C27.1,69.2,16.3,58.4,16.3,45.1z"/>
		</g>
		<g>
			<g>
				<path class="st4" d="M106.2,21.5c-3.2-2.9-7.1-4.3-11.9-4.3H78.9v48.2h5V46.2h12c4.1,0,7.6-1.3,10.5-4c3-2.7,4.5-6,4.5-9.9
					C111,28,109.4,24.4,106.2,21.5z M102.7,39c-2.1,1.9-4.7,2.9-7.8,2.9h-11V21.7h10.7c3,0,5.6,0.9,7.8,2.7c2.2,1.8,3.4,4,3.5,6.8
					C106.1,34.4,105,37,102.7,39z"/>
				<path class="st4" d="M145.5,34.5c-3.5-3.7-7.8-5.6-12.8-5.7c-5.2-0.2-9.6,1.6-13.3,5.3c-3.7,3.7-5.6,8.2-5.6,13.4
					c0,5,1.7,9.3,5.2,13c3.5,3.6,7.6,5.5,12.5,5.7c5.6,0.2,10.4-2,14.2-6.4v5.6h4.8V47.5C150.7,42.5,149,38.2,145.5,34.5z
					 M141.7,57.5c-2.8,2.9-6.1,4.3-10.1,4.1c-3.6-0.2-6.7-1.7-9.3-4.5c-2.6-2.8-3.8-6.1-3.7-9.9c0-3.8,1.4-7.1,4.1-9.7
					c2.7-2.7,5.9-4,9.7-4c3.6,0,6.8,1.3,9.4,4c2.6,2.7,3.9,5.9,4,9.7C145.8,51.1,144.5,54.6,141.7,57.5z"/>
				<path class="st4" d="M194,47.7V17.2h-4.8v18.1c-3.5-4-7.9-6.1-13.1-6.3c-5.1-0.2-9.5,1.6-13.3,5.4c-3.7,3.7-5.6,8.2-5.6,13.4
					c0,5,1.7,9.3,5.2,13c3.4,3.6,7.7,5.5,12.6,5.6c5.1,0.2,9.6-1.6,13.4-5.4C192.3,57.3,194.1,52.9,194,47.7z M185.2,57.7
					c-2.8,2.9-6.1,4.3-10.1,4.1c-3.7-0.1-6.8-1.6-9.4-4.4c-2.6-2.8-3.8-6.1-3.8-9.9c0-3.8,1.4-7.1,4.1-9.8c2.7-2.7,5.9-4,9.7-4
					c3.7,0,6.8,1.3,9.4,4c2.6,2.7,3.9,5.9,4,9.7C189.3,51.3,188,54.7,185.2,57.7z"/>
				<path class="st4" d="M237.3,46.6c0-4.4-1.7-8.4-5.1-12c-3.5-3.6-7.6-5.6-12.4-5.9c-5.3-0.3-9.9,1.5-13.8,5.4
					c-3.9,3.9-5.8,8.5-5.7,13.8c0.1,5.1,2,9.4,5.8,13.1c3.8,3.7,8.1,5.4,13,5.4c3.9,0,7.4-1.2,10.6-3.4c3.2-2.3,5.4-5.3,6.8-9.1
					h-5.1c-2.4,5.1-6.5,7.7-12.1,7.8c-3.6,0-6.8-1.1-9.5-3.4c-2.7-2.3-4.2-5.3-4.6-8.9h32.1V46.6z M205.2,44.8
					c0.7-3.4,2.3-6.1,4.9-8.2c2.6-2.1,5.6-3.1,9-3.1c3.4,0,6.4,1.1,8.8,3.2c2.5,2.1,4,4.8,4.7,8.1H205.2z"/>
				<path class="st4" d="M244,17.2v48.2h4.8V17.2H244z"/>
				<path class="st4" d="M300.2,17.2l-18,41.5l-17.3-41.5h-7.6v48.2h4.9V22.9l18,42.5h4.1l18.4-42.6v42.6h4.9V17.2H300.2z"/>
				<path class="st4" d="M346.5,51.7c-0.2-5.7-2.8-9.8-7.8-12.1c3.7-2.4,5.5-5.7,5.5-10c0-3.6-1.5-6.6-4.4-9
					c-2.8-2.3-6.1-3.3-10-3.3h-13.7v48.2h15.3c4.1,0,7.6-1.3,10.6-4C345.2,58.8,346.7,55.5,346.5,51.7z M321.2,21.7h8.6
					c2.7,0,4.9,0.7,6.7,2.1c2,1.5,3,3.5,3,6.1c0,2.3-0.9,4.3-2.9,5.7c-1.9,1.5-4.1,2.2-6.6,2.2h-8.8V21.7z M338.7,58.1
					c-2.1,1.7-5,2.6-8.7,2.6h-8.8V42.2h8.5c3.4,0,6.2,0.7,8.2,2.1c2.3,1.6,3.5,3.9,3.6,6.9C341.8,54.1,340.8,56.4,338.7,58.1z"/>
				<path class="st4" d="M377.3,17.2h-5.4l-21.6,48.2h6.1l6.8-16.3l2.1-4.3l9.4-22l9.2,22l1.7,4.3l6.9,16.3h5.4L377.3,17.2z"/>
			</g>
		</g>
	</g>
</g>
</svg>
