<?xml version="1.0" encoding="UTF-8"?>
<svg xmlns="http://www.w3.org/2000/svg" xmlns:xlink="http://www.w3.org/1999/xlink" width="162px" height="55px" viewBox="0 0 161 55" version="1.1">
<g id="surface1">
<path style=" stroke:none;fill-rule:nonzero;fill:rgb(71.764706%,71.764706%,71.764706%);fill-opacity:1;" d="M 146.640625 1.089844 L 14.371094 1.089844 C 13.886719 1.089844 13.40625 1.089844 12.933594 1.089844 C 12.53125 1.089844 12.136719 1.101562 11.730469 1.109375 C 10.855469 1.132812 9.964844 1.1875 9.089844 1.34375 C 8.203125 1.496094 7.382812 1.761719 6.582031 2.167969 C 5.792969 2.574219 5.082031 3.101562 4.457031 3.730469 C 3.824219 4.355469 3.308594 5.070312 2.902344 5.863281 C 2.496094 6.664062 2.234375 7.492188 2.082031 8.382812 C 1.925781 9.25 1.871094 10.140625 1.839844 11.023438 C 1.828125 11.429688 1.828125 11.835938 1.816406 12.242188 C 1.816406 12.714844 1.816406 13.199219 1.816406 13.683594 L 1.816406 41.328125 C 1.816406 41.8125 1.816406 42.296875 1.816406 42.769531 C 1.828125 43.175781 1.828125 43.570312 1.839844 43.988281 C 1.863281 44.867188 1.917969 45.761719 2.082031 46.628906 C 2.234375 47.507812 2.496094 48.34375 2.902344 49.148438 C 3.296875 49.941406 3.824219 50.65625 4.445312 51.28125 C 5.070312 51.910156 5.78125 52.4375 6.570312 52.84375 C 7.371094 53.261719 8.191406 53.515625 9.070312 53.679688 C 9.945312 53.835938 10.832031 53.890625 11.707031 53.910156 C 12.113281 53.921875 12.519531 53.921875 12.914062 53.921875 C 13.394531 53.921875 13.867188 53.921875 14.347656 53.921875 L 146.628906 53.921875 C 147.101562 53.921875 147.582031 53.921875 148.054688 53.921875 C 148.460938 53.921875 148.863281 53.921875 149.269531 53.910156 C 150.144531 53.890625 151.035156 53.835938 151.898438 53.679688 C 152.773438 53.515625 153.597656 53.261719 154.40625 52.84375 C 155.195312 52.449219 155.90625 51.921875 156.53125 51.28125 C 157.15625 50.664062 157.679688 49.941406 158.085938 49.148438 C 158.492188 48.34375 158.753906 47.519531 158.898438 46.628906 C 159.0625 45.761719 159.105469 44.867188 159.136719 43.988281 C 159.136719 43.582031 159.136719 43.1875 159.136719 42.769531 C 159.148438 42.285156 159.148438 41.8125 159.148438 41.328125 L 159.148438 13.683594 C 159.148438 13.199219 159.148438 12.714844 159.136719 12.242188 C 159.136719 11.835938 159.136719 11.429688 159.136719 11.023438 C 159.105469 10.140625 159.050781 9.25 158.898438 8.382812 C 158.742188 7.503906 158.480469 6.675781 158.085938 5.863281 C 157.679688 5.070312 157.15625 4.34375 156.53125 3.71875 C 155.90625 3.089844 155.195312 2.5625 154.40625 2.15625 C 153.597656 1.75 152.773438 1.484375 151.898438 1.332031 C 151.035156 1.175781 150.144531 1.121094 149.269531 1.101562 C 148.863281 1.089844 148.460938 1.089844 148.054688 1.078125 C 147.59375 1.089844 147.113281 1.089844 146.640625 1.089844 Z M 146.640625 1.089844 "/>
<path style=" stroke:none;fill-rule:nonzero;fill:rgb(0%,0%,0.392157%);fill-opacity:1;" d="M 12.933594 52.757812 C 12.53125 52.757812 12.144531 52.757812 11.742188 52.746094 C 11.007812 52.722656 10.132812 52.679688 9.289062 52.523438 C 8.488281 52.382812 7.777344 52.140625 7.109375 51.800781 C 6.417969 51.445312 5.804688 50.996094 5.269531 50.457031 C 4.71875 49.917969 4.269531 49.300781 3.921875 48.609375 C 3.582031 47.9375 3.351562 47.222656 3.210938 46.421875 C 3.042969 45.527344 3.011719 44.628906 2.988281 43.945312 C 2.980469 43.671875 2.96875 42.734375 2.96875 42.734375 L 2.96875 12.242188 C 2.96875 12.242188 2.980469 11.328125 2.988281 11.066406 C 3.011719 10.371094 3.042969 9.472656 3.210938 8.589844 C 3.351562 7.777344 3.582031 7.0625 3.921875 6.390625 C 4.269531 5.699219 4.71875 5.082031 5.257812 4.542969 C 5.804688 3.992188 6.417969 3.542969 7.097656 3.191406 C 7.789062 2.847656 8.5 2.617188 9.277344 2.476562 C 10.164062 2.320312 11.0625 2.277344 11.742188 2.253906 L 12.921875 2.242188 L 148.054688 2.242188 L 149.257812 2.265625 C 149.9375 2.289062 150.835938 2.320312 151.703125 2.484375 C 152.488281 2.628906 153.210938 2.859375 153.902344 3.210938 C 154.582031 3.5625 155.195312 4.015625 155.730469 4.554688 C 156.269531 5.09375 156.71875 5.710938 157.078125 6.414062 C 157.417969 7.085938 157.648438 7.800781 157.78125 8.589844 C 157.933594 9.425781 157.976562 10.285156 158.011719 11.089844 C 158.011719 11.460938 158.011719 11.867188 158.011719 12.265625 C 158.019531 12.761719 158.019531 13.234375 158.019531 13.707031 L 158.019531 41.347656 C 158.019531 41.832031 158.019531 42.296875 158.011719 42.769531 C 158.011719 43.195312 158.011719 43.59375 158.011719 44 C 157.988281 44.78125 157.933594 45.628906 157.78125 46.453125 C 157.648438 47.265625 157.40625 47.980469 157.066406 48.652344 C 156.71875 49.335938 156.257812 49.960938 155.730469 50.480469 C 155.183594 51.027344 154.570312 51.480469 153.890625 51.832031 C 153.210938 52.183594 152.511719 52.414062 151.703125 52.558594 C 150.859375 52.710938 149.980469 52.757812 149.25 52.777344 C 148.863281 52.789062 148.460938 52.789062 148.066406 52.789062 L 146.640625 52.789062 Z M 12.933594 52.757812 "/>
<path style=" stroke:none;fill-rule:nonzero;fill:rgb(100%,100%,100%);fill-opacity:1;" d="M 34.402344 27.894531 C 34.367188 24.265625 37.359375 22.496094 37.5 22.417969 C 35.804688 19.933594 33.175781 19.589844 32.253906 19.570312 C 30.042969 19.339844 27.90625 20.898438 26.777344 20.898438 C 25.628906 20.898438 23.898438 19.589844 22.035156 19.636719 C 19.636719 19.667969 17.390625 21.066406 16.15625 23.230469 C 13.613281 27.652344 15.507812 34.15625 17.941406 37.730469 C 19.15625 39.480469 20.578125 41.4375 22.453125 41.371094 C 24.28125 41.292969 24.960938 40.203125 27.160156 40.203125 C 29.339844 40.203125 29.976562 41.371094 31.882812 41.328125 C 33.84375 41.292969 35.070312 39.566406 36.253906 37.808594 C 37.664062 35.804688 38.222656 33.824219 38.246094 33.726562 C 38.191406 33.691406 34.433594 32.253906 34.402344 27.894531 Z M 34.402344 27.894531 "/>
<path style=" stroke:none;fill-rule:nonzero;fill:rgb(100%,100%,100%);fill-opacity:1;" d="M 30.808594 17.214844 C 31.792969 15.984375 32.460938 14.3125 32.277344 12.605469 C 30.851562 12.671875 29.078125 13.597656 28.058594 14.796875 C 27.152344 15.863281 26.351562 17.601562 26.558594 19.238281 C 28.148438 19.347656 29.78125 18.425781 30.808594 17.214844 Z M 30.808594 17.214844 "/>
<path style=" stroke:none;fill-rule:nonzero;fill:rgb(100%,100%,100%);fill-opacity:1;" d="M 57.457031 36.925781 L 51.222656 36.925781 L 49.734375 41.359375 L 47.09375 41.359375 L 52.988281 24.960938 L 55.726562 24.960938 L 61.628906 41.359375 L 58.945312 41.359375 Z M 51.871094 34.882812 L 56.800781 34.882812 L 54.367188 27.6875 L 54.300781 27.6875 Z M 51.871094 34.882812 "/>
<path style=" stroke:none;fill-rule:nonzero;fill:rgb(100%,100%,100%);fill-opacity:1;" d="M 74.355469 35.386719 C 74.355469 39.105469 72.375 41.492188 69.382812 41.492188 C 67.6875 41.492188 66.339844 40.734375 65.636719 39.402344 L 65.582031 39.402344 L 65.582031 45.320312 L 63.140625 45.320312 L 63.140625 29.402344 L 65.507812 29.402344 L 65.507812 31.394531 L 65.550781 31.394531 C 66.230469 30.105469 67.675781 29.28125 69.339844 29.28125 C 72.363281 29.28125 74.355469 31.679688 74.355469 35.386719 Z M 71.847656 35.386719 C 71.847656 32.96875 70.597656 31.371094 68.703125 31.371094 C 66.84375 31.371094 65.582031 33 65.582031 35.386719 C 65.582031 37.796875 66.84375 39.414062 68.703125 39.414062 C 70.597656 39.402344 71.847656 37.828125 71.847656 35.386719 Z M 71.847656 35.386719 "/>
<path style=" stroke:none;fill-rule:nonzero;fill:rgb(100%,100%,100%);fill-opacity:1;" d="M 87.464844 35.386719 C 87.464844 39.105469 85.484375 41.492188 82.492188 41.492188 C 80.796875 41.492188 79.449219 40.734375 78.746094 39.402344 L 78.691406 39.402344 L 78.691406 45.320312 L 76.25 45.320312 L 76.25 29.402344 L 78.617188 29.402344 L 78.617188 31.394531 L 78.660156 31.394531 C 79.339844 30.105469 80.785156 29.28125 82.449219 29.28125 C 85.472656 29.28125 87.464844 31.679688 87.464844 35.386719 Z M 84.945312 35.386719 C 84.945312 32.96875 83.699219 31.371094 81.804688 31.371094 C 79.941406 31.371094 78.683594 33 78.683594 35.386719 C 78.683594 37.796875 79.941406 39.414062 81.804688 39.414062 C 83.699219 39.402344 84.945312 37.828125 84.945312 35.386719 Z M 84.945312 35.386719 "/>
<path style=" stroke:none;fill-rule:nonzero;fill:rgb(100%,100%,100%);fill-opacity:1;" d="M 96.117188 36.796875 C 96.304688 38.421875 97.871094 39.488281 100.015625 39.488281 C 102.078125 39.488281 103.554688 38.421875 103.554688 36.960938 C 103.554688 35.683594 102.65625 34.925781 100.542969 34.40625 L 98.429688 33.890625 C 95.429688 33.164062 94.039062 31.757812 94.039062 29.46875 C 94.039062 26.640625 96.492188 24.695312 99.972656 24.695312 C 103.421875 24.695312 105.789062 26.640625 105.867188 29.46875 L 103.402344 29.46875 C 103.257812 27.828125 101.910156 26.839844 99.941406 26.839844 C 97.96875 26.839844 96.621094 27.839844 96.621094 29.292969 C 96.621094 30.449219 97.488281 31.128906 99.589844 31.65625 L 101.386719 32.097656 C 104.738281 32.890625 106.128906 34.242188 106.128906 36.640625 C 106.128906 39.710938 103.695312 41.636719 99.820312 41.636719 C 96.195312 41.636719 93.753906 39.753906 93.597656 36.796875 Z M 96.117188 36.796875 "/>
<path style=" stroke:none;fill-rule:nonzero;fill:rgb(100%,100%,100%);fill-opacity:1;" d="M 111.417969 26.574219 L 111.417969 29.402344 L 113.6875 29.402344 L 113.6875 31.351562 L 111.417969 31.351562 L 111.417969 37.9375 C 111.417969 38.960938 111.867188 39.433594 112.863281 39.433594 C 113.117188 39.433594 113.511719 39.402344 113.664062 39.378906 L 113.664062 41.316406 C 113.390625 41.382812 112.851562 41.425781 112.304688 41.425781 C 109.894531 41.425781 108.953125 40.511719 108.953125 38.203125 L 108.953125 31.351562 L 107.222656 31.351562 L 107.222656 29.402344 L 108.953125 29.402344 L 108.953125 26.574219 Z M 111.417969 26.574219 "/>
<path style=" stroke:none;fill-rule:nonzero;fill:rgb(100%,100%,100%);fill-opacity:1;" d="M 115 35.386719 C 115 31.625 117.203125 29.261719 120.652344 29.261719 C 124.101562 29.261719 126.304688 31.625 126.304688 35.386719 C 126.304688 39.160156 124.125 41.515625 120.652344 41.515625 C 117.179688 41.515625 115 39.160156 115 35.386719 Z M 123.792969 35.386719 C 123.792969 32.800781 122.613281 31.285156 120.640625 31.285156 C 118.667969 31.285156 117.484375 32.824219 117.484375 35.386719 C 117.484375 37.984375 118.65625 39.488281 120.640625 39.488281 C 122.621094 39.488281 123.792969 37.972656 123.792969 35.386719 Z M 123.792969 35.386719 "/>
<path style=" stroke:none;fill-rule:nonzero;fill:rgb(100%,100%,100%);fill-opacity:1;" d="M 128.308594 29.402344 L 130.640625 29.402344 L 130.640625 31.4375 L 130.695312 31.4375 C 131.066406 30.085938 132.152344 29.28125 133.554688 29.28125 C 133.902344 29.28125 134.199219 29.324219 134.386719 29.371094 L 134.386719 31.667969 C 134.1875 31.59375 133.761719 31.527344 133.289062 31.527344 C 131.714844 31.527344 130.75 32.59375 130.75 34.277344 L 130.75 41.371094 L 128.308594 41.371094 Z M 128.308594 29.402344 "/>
<path style=" stroke:none;fill-rule:nonzero;fill:rgb(100%,100%,100%);fill-opacity:1;" d="M 145.65625 37.851562 C 145.328125 40.019531 143.222656 41.515625 140.53125 41.515625 C 137.070312 41.515625 134.921875 39.183594 134.921875 35.441406 C 134.921875 31.691406 137.078125 29.261719 140.429688 29.261719 C 143.726562 29.261719 145.796875 31.535156 145.796875 35.15625 L 145.796875 35.992188 L 137.386719 35.992188 L 137.386719 36.136719 C 137.386719 38.179688 138.667969 39.523438 140.585938 39.523438 C 141.941406 39.523438 143.003906 38.875 143.332031 37.839844 L 145.65625 37.839844 Z M 137.398438 34.277344 L 143.34375 34.277344 C 143.289062 32.449219 142.117188 31.238281 140.421875 31.238281 C 138.746094 31.25 137.519531 32.472656 137.398438 34.277344 Z M 137.398438 34.277344 "/>
<path style=" stroke:none;fill-rule:nonzero;fill:rgb(100%,100%,100%);fill-opacity:1;" d="M 48.410156 16.554688 C 48.410156 14.003906 49.769531 12.417969 51.945312 12.417969 C 53.675781 12.417969 55.015625 13.539062 55.210938 15.148438 L 53.996094 15.148438 C 53.765625 14.179688 52.976562 13.550781 51.945312 13.550781 C 50.535156 13.550781 49.65625 14.707031 49.65625 16.542969 C 49.65625 18.382812 50.535156 19.535156 51.957031 19.535156 C 53 19.535156 53.789062 18.976562 54.007812 18.085938 L 55.222656 18.085938 C 55.003906 19.636719 53.710938 20.679688 51.96875 20.679688 C 49.769531 20.691406 48.410156 19.105469 48.410156 16.554688 Z M 48.410156 16.554688 "/>
<path style=" stroke:none;fill-rule:nonzero;fill:rgb(100%,100%,100%);fill-opacity:1;" d="M 56.546875 17.523438 C 56.546875 15.609375 57.609375 14.433594 59.339844 14.433594 C 61.058594 14.433594 62.132812 15.597656 62.132812 17.523438 C 62.132812 19.449219 61.070312 20.613281 59.339844 20.613281 C 57.597656 20.613281 56.546875 19.449219 56.546875 17.523438 Z M 60.929688 17.523438 C 60.929688 16.234375 60.347656 15.476562 59.339844 15.476562 C 58.320312 15.476562 57.75 16.234375 57.75 17.523438 C 57.75 18.820312 58.320312 19.570312 59.339844 19.570312 C 60.347656 19.570312 60.929688 18.820312 60.929688 17.523438 Z M 60.929688 17.523438 "/>
<path style=" stroke:none;fill-rule:nonzero;fill:rgb(100%,100%,100%);fill-opacity:1;" d="M 63.699219 14.554688 L 64.828125 14.554688 L 64.828125 15.5 L 64.914062 15.5 C 65.199219 14.839844 65.789062 14.441406 66.679688 14.441406 C 68.003906 14.441406 68.726562 15.234375 68.726562 16.652344 L 68.726562 20.503906 L 67.554688 20.503906 L 67.554688 16.941406 C 67.554688 15.984375 67.136719 15.511719 66.273438 15.511719 C 65.40625 15.511719 64.859375 16.09375 64.859375 17.015625 L 64.859375 20.492188 L 63.6875 20.492188 L 63.6875 14.554688 Z M 63.699219 14.554688 "/>
<path style=" stroke:none;fill-rule:nonzero;fill:rgb(100%,100%,100%);fill-opacity:1;" d="M 72.691406 14.433594 C 74.027344 14.433594 74.890625 15.058594 75.011719 16.105469 L 73.894531 16.105469 C 73.785156 15.664062 73.359375 15.390625 72.703125 15.390625 C 72.042969 15.390625 71.550781 15.695312 71.550781 16.160156 C 71.550781 16.511719 71.847656 16.742188 72.492188 16.886719 L 73.480469 17.117188 C 74.609375 17.378906 75.132812 17.863281 75.132812 18.734375 C 75.132812 19.855469 74.09375 20.601562 72.679688 20.601562 C 71.265625 20.601562 70.359375 19.964844 70.25 18.910156 L 71.421875 18.910156 C 71.5625 19.371094 72 19.644531 72.710938 19.644531 C 73.4375 19.644531 73.960938 19.316406 73.960938 18.84375 C 73.960938 18.492188 73.6875 18.261719 73.097656 18.117188 L 72.066406 17.875 C 70.9375 17.609375 70.421875 17.105469 70.421875 16.214844 C 70.390625 15.179688 71.355469 14.433594 72.691406 14.433594 Z M 72.691406 14.433594 "/>
<path style=" stroke:none;fill-rule:nonzero;fill:rgb(100%,100%,100%);fill-opacity:1;" d="M 76.601562 13.550781 L 77.96875 11.671875 L 79.339844 11.671875 L 77.804688 13.550781 Z M 76.722656 14.554688 L 77.882812 14.554688 L 77.882812 20.503906 L 76.722656 20.503906 Z M 76.722656 14.554688 "/>
<path style=" stroke:none;fill-rule:nonzero;fill:rgb(100%,100%,100%);fill-opacity:1;" d="M 79.699219 21.097656 L 80.894531 21.097656 C 80.992188 21.527344 81.484375 21.8125 82.273438 21.8125 C 83.25 21.8125 83.828125 21.351562 83.828125 20.558594 L 83.828125 19.414062 L 83.742188 19.414062 C 83.378906 20.0625 82.734375 20.414062 81.914062 20.414062 C 80.402344 20.414062 79.46875 19.238281 79.46875 17.457031 C 79.46875 15.640625 80.414062 14.453125 81.921875 14.453125 C 82.734375 14.453125 83.445312 14.859375 83.785156 15.5 L 83.875 15.5 L 83.875 14.554688 L 84.992188 14.554688 L 84.992188 20.546875 C 84.992188 21.910156 83.929688 22.769531 82.253906 22.769531 C 80.785156 22.769531 79.832031 22.097656 79.699219 21.097656 Z M 83.851562 17.445312 C 83.851562 16.257812 83.238281 15.5 82.242188 15.5 C 81.234375 15.5 80.675781 16.257812 80.675781 17.445312 C 80.675781 18.632812 81.246094 19.394531 82.242188 19.394531 C 83.25 19.394531 83.851562 18.644531 83.851562 17.445312 Z M 83.851562 17.445312 "/>
<path style=" stroke:none;fill-rule:nonzero;fill:rgb(100%,100%,100%);fill-opacity:1;" d="M 91.859375 20.492188 L 90.730469 20.492188 L 90.730469 19.546875 L 90.640625 19.546875 C 90.355469 20.230469 89.753906 20.601562 88.855469 20.601562 C 87.542969 20.601562 86.820312 19.800781 86.820312 18.402344 L 86.820312 14.542969 L 87.992188 14.542969 L 87.992188 18.09375 C 87.992188 19.050781 88.375 19.515625 89.238281 19.515625 C 90.183594 19.515625 90.707031 18.953125 90.707031 18.019531 L 90.707031 14.542969 L 91.878906 14.542969 L 91.878906 20.492188 Z M 91.859375 20.492188 "/>
<path style=" stroke:none;fill-rule:nonzero;fill:rgb(100%,100%,100%);fill-opacity:1;" d="M 98.726562 18.886719 C 98.460938 19.953125 97.507812 20.601562 96.160156 20.601562 C 94.464844 20.601562 93.421875 19.4375 93.421875 17.535156 C 93.421875 15.632812 94.484375 14.433594 96.152344 14.433594 C 97.792969 14.433594 98.789062 15.566406 98.789062 17.433594 L 98.789062 17.84375 L 94.605469 17.84375 L 94.605469 17.90625 C 94.652344 18.953125 95.253906 19.613281 96.183594 19.613281 C 96.894531 19.613281 97.378906 19.359375 97.597656 18.886719 Z M 94.605469 16.972656 L 97.597656 16.972656 C 97.574219 16.039062 97.003906 15.433594 96.140625 15.433594 C 95.285156 15.433594 94.671875 16.050781 94.605469 16.972656 Z M 94.605469 16.972656 "/>
<path style=" stroke:none;fill-rule:nonzero;fill:rgb(100%,100%,100%);fill-opacity:1;" d="M 100.410156 12.230469 L 101.582031 12.230469 L 101.582031 20.503906 L 100.410156 20.503906 Z M 100.410156 12.230469 "/>
<path style=" stroke:none;fill-rule:nonzero;fill:rgb(100%,100%,100%);fill-opacity:1;" d="M 103.203125 17.523438 C 103.203125 15.609375 104.265625 14.433594 105.996094 14.433594 C 107.714844 14.433594 108.789062 15.597656 108.789062 17.523438 C 108.789062 19.449219 107.726562 20.613281 105.996094 20.613281 C 104.265625 20.613281 103.203125 19.449219 103.203125 17.523438 Z M 107.597656 17.523438 C 107.597656 16.234375 107.015625 15.476562 106.007812 15.476562 C 104.988281 15.476562 104.421875 16.234375 104.421875 17.523438 C 104.421875 18.820312 104.988281 19.570312 106.007812 19.570312 C 107.015625 19.570312 107.597656 18.820312 107.597656 17.523438 Z M 107.597656 17.523438 "/>
<path style=" stroke:none;fill-rule:nonzero;fill:rgb(100%,100%,100%);fill-opacity:1;" d="M 118.582031 18.886719 C 118.320312 19.953125 117.367188 20.601562 116.019531 20.601562 C 114.320312 20.601562 113.28125 19.4375 113.28125 17.535156 C 113.28125 15.632812 114.34375 14.433594 116.007812 14.433594 C 117.652344 14.433594 118.648438 15.566406 118.648438 17.433594 L 118.648438 17.84375 L 114.464844 17.84375 L 114.464844 17.90625 C 114.507812 18.953125 115.109375 19.613281 116.039062 19.613281 C 116.753906 19.613281 117.234375 19.359375 117.453125 18.886719 Z M 114.472656 16.972656 L 117.464844 16.972656 C 117.441406 16.039062 116.871094 15.433594 116.007812 15.433594 C 115.140625 15.433594 114.539062 16.050781 114.472656 16.972656 Z M 114.472656 16.972656 "/>
<path style=" stroke:none;fill-rule:nonzero;fill:rgb(100%,100%,100%);fill-opacity:1;" d="M 120.222656 14.554688 L 121.351562 14.554688 L 121.351562 15.5 L 121.441406 15.5 C 121.726562 14.839844 122.316406 14.441406 123.203125 14.441406 C 124.527344 14.441406 125.25 15.234375 125.25 16.652344 L 125.25 20.503906 L 124.078125 20.503906 L 124.078125 16.941406 C 124.078125 15.984375 123.664062 15.511719 122.796875 15.511719 C 121.933594 15.511719 121.386719 16.09375 121.386719 17.015625 L 121.386719 20.492188 L 120.214844 20.492188 L 120.214844 14.554688 Z M 120.222656 14.554688 "/>
<path style=" stroke:none;fill-rule:nonzero;fill:rgb(100%,100%,100%);fill-opacity:1;" d="M 135.273438 18.886719 C 135.011719 19.953125 134.058594 20.601562 132.710938 20.601562 C 131.011719 20.601562 129.972656 19.4375 129.972656 17.535156 C 129.972656 15.632812 131.035156 14.433594 132.699219 14.433594 C 134.34375 14.433594 135.339844 15.566406 135.339844 17.433594 L 135.339844 17.84375 L 131.15625 17.84375 L 131.15625 17.90625 C 131.199219 18.953125 131.800781 19.613281 132.730469 19.613281 C 133.445312 19.613281 133.925781 19.359375 134.144531 18.886719 Z M 131.164062 16.972656 L 134.15625 16.972656 C 134.132812 16.039062 133.5625 15.433594 132.699219 15.433594 C 131.832031 15.433594 131.230469 16.050781 131.164062 16.972656 Z M 131.164062 16.972656 "/>
<path style=" stroke:none;fill-rule:nonzero;fill:rgb(100%,100%,100%);fill-opacity:1;" d="M 136.96875 12.230469 L 138.140625 12.230469 L 138.140625 20.503906 L 136.96875 20.503906 Z M 136.96875 12.230469 "/>
</g>
</svg>
