<?xml version="1.0" encoding="UTF-8"?>
<svg xmlns="http://www.w3.org/2000/svg" xmlns:xlink="http://www.w3.org/1999/xlink" width="165px" height="50px" viewBox="0 0 164 50" version="1.1">
<defs>
<linearGradient id="linear0" gradientUnits="userSpaceOnUse" x1="25.8408" y1="178.3882" x2="6.8701" y2="159.4175" gradientTransform="matrix(1.052466,0,0,-1.058201,0.433862,200.266243)">
<stop offset="0" style="stop-color:rgb(0%,62.745098%,100%);stop-opacity:1;"/>
<stop offset="0.00657445" style="stop-color:rgb(0%,63.137255%,100%);stop-opacity:1;"/>
<stop offset="0.2601" style="stop-color:rgb(0%,74.509804%,100%);stop-opacity:1;"/>
<stop offset="0.5122" style="stop-color:rgb(0%,82.352941%,100%);stop-opacity:1;"/>
<stop offset="0.7604" style="stop-color:rgb(0%,87.45098%,100%);stop-opacity:1;"/>
<stop offset="1" style="stop-color:rgb(0%,89.019608%,100%);stop-opacity:1;"/>
</linearGradient>
<linearGradient id="linear1" gradientUnits="userSpaceOnUse" x1="39.4447" y1="165.6241" x2="12.0927" y2="165.6241" gradientTransform="matrix(1.052466,0,0,-1.058201,0.433862,200.266243)">
<stop offset="0" style="stop-color:rgb(100%,87.843137%,0%);stop-opacity:1;"/>
<stop offset="0.4087" style="stop-color:rgb(100%,74.117647%,0%);stop-opacity:1;"/>
<stop offset="0.7754" style="stop-color:rgb(100%,64.705882%,0%);stop-opacity:1;"/>
<stop offset="1" style="stop-color:rgb(100%,61.176471%,0%);stop-opacity:1;"/>
</linearGradient>
<linearGradient id="linear2" gradientUnits="userSpaceOnUse" x1="29.2627" y1="163.0303" x2="3.537" y2="137.3045" gradientTransform="matrix(1.052466,0,0,-1.058201,0.433862,200.266243)">
<stop offset="0" style="stop-color:rgb(100%,22.745098%,26.666667%);stop-opacity:1;"/>
<stop offset="1" style="stop-color:rgb(76.470588%,6.666667%,38.431373%);stop-opacity:1;"/>
</linearGradient>
<linearGradient id="linear3" gradientUnits="userSpaceOnUse" x1="9.4474" y1="188.0345" x2="20.935" y2="176.5468" gradientTransform="matrix(1.052466,0,0,-1.058201,0.433862,200.266243)">
<stop offset="0" style="stop-color:rgb(19.607843%,62.745098%,44.313725%);stop-opacity:1;"/>
<stop offset="0.0685" style="stop-color:rgb(17.647059%,65.490196%,44.313725%);stop-opacity:1;"/>
<stop offset="0.4762" style="stop-color:rgb(8.235294%,81.176471%,45.490196%);stop-opacity:1;"/>
<stop offset="0.8009" style="stop-color:rgb(2.352941%,90.588235%,45.882353%);stop-opacity:1;"/>
<stop offset="1" style="stop-color:rgb(0%,94.117647%,46.27451%);stop-opacity:1;"/>
</linearGradient>
<filter id="alpha" filterUnits="objectBoundingBox" x="0%" y="0%" width="100%" height="100%">
  <feColorMatrix type="matrix" in="SourceGraphic" values="0 0 0 0 1 0 0 0 0 1 0 0 0 0 1 0 0 0 1 0"/>
</filter>
<mask id="mask0">
  <g filter="url(#alpha)">
<rect x="0" y="0" width="164" height="50" style="fill:rgb(0%,0%,0%);fill-opacity:0.2;stroke:none;"/>
  </g>
</mask>
<clipPath id="clip1">
  <rect x="0" y="0" width="164" height="50"/>
</clipPath>
<g id="surface5" clip-path="url(#clip1)">
<path style=" stroke:none;fill-rule:nonzero;fill:rgb(0%,0%,0%);fill-opacity:1;" d="M 33.851562 29.945312 L 16.578125 39.808594 C 15.609375 40.359375 14.746094 40.328125 14.199219 39.820312 L 14.117188 39.90625 L 14.199219 39.988281 C 14.757812 40.488281 15.621094 40.527344 16.578125 39.980469 L 33.953125 30.054688 Z M 33.851562 29.945312 "/>
</g>
<mask id="mask1">
  <g filter="url(#alpha)">
<rect x="0" y="0" width="164" height="50" style="fill:rgb(0%,0%,0%);fill-opacity:0.121569;stroke:none;"/>
  </g>
</mask>
<clipPath id="clip2">
  <rect x="0" y="0" width="164" height="50"/>
</clipPath>
<g id="surface8" clip-path="url(#clip2)">
<path style=" stroke:none;fill-rule:nonzero;fill:rgb(0%,0%,0%);fill-opacity:1;" d="M 14.105469 39.734375 C 13.757812 39.363281 13.558594 38.792969 13.558594 38.054688 L 13.558594 38.234375 C 13.558594 38.972656 13.757812 39.546875 14.105469 39.914062 L 14.191406 39.832031 Z M 14.105469 39.734375 "/>
</g>
<mask id="mask2">
  <g filter="url(#alpha)">
<rect x="0" y="0" width="164" height="50" style="fill:rgb(0%,0%,0%);fill-opacity:0.121569;stroke:none;"/>
  </g>
</mask>
<clipPath id="clip3">
  <rect x="0" y="0" width="164" height="50"/>
</clipPath>
<g id="surface11" clip-path="url(#clip3)">
<path style=" stroke:none;fill-rule:nonzero;fill:rgb(0%,0%,0%);fill-opacity:1;" d="M 39.785156 26.550781 L 33.851562 29.9375 L 33.964844 30.054688 L 39.785156 26.730469 C 40.617188 26.253906 41.027344 25.628906 41.027344 25.003906 C 40.964844 25.566406 40.53125 26.128906 39.785156 26.550781 Z M 39.785156 26.550781 "/>
</g>
<mask id="mask3">
  <g filter="url(#alpha)">
<rect x="0" y="0" width="164" height="50" style="fill:rgb(0%,0%,0%);fill-opacity:0.25098;stroke:none;"/>
  </g>
</mask>
<clipPath id="clip4">
  <rect x="0" y="0" width="164" height="50"/>
</clipPath>
<g id="surface14" clip-path="url(#clip4)">
<path style=" stroke:none;fill-rule:nonzero;fill:rgb(100%,100%,100%);fill-opacity:1;" d="M 16.578125 10.199219 L 39.773438 23.449219 C 40.53125 23.882812 40.953125 24.433594 41.015625 25.003906 C 41.015625 24.382812 40.605469 23.757812 39.773438 23.28125 L 16.578125 10.019531 C 14.914062 9.070312 13.558594 9.863281 13.558594 11.777344 L 13.558594 11.957031 C 13.558594 10.03125 14.914062 9.25 16.578125 10.199219 Z M 16.578125 10.199219 "/>
</g>
</defs>
<g id="surface1">
<path style=" stroke:none;fill-rule:nonzero;fill:rgb(0%,0%,0%);fill-opacity:1;" d="M 156.355469 48.921875 L 7.644531 48.921875 C 4.371094 48.921875 1.695312 46.234375 1.695312 42.941406 L 1.695312 7.058594 C 1.695312 3.765625 4.371094 1.078125 7.644531 1.078125 L 156.355469 1.078125 C 159.628906 1.078125 162.304688 3.765625 162.304688 7.058594 L 162.304688 42.941406 C 162.304688 46.234375 159.628906 48.921875 156.355469 48.921875 Z M 156.355469 48.921875 "/>
<path style=" stroke:none;fill-rule:nonzero;fill:rgb(65.098039%,65.098039%,65.098039%);fill-opacity:1;" d="M 156.355469 2.03125 C 159.113281 2.03125 161.355469 4.285156 161.355469 7.058594 L 161.355469 42.941406 C 161.355469 45.714844 159.113281 47.96875 156.355469 47.96875 L 7.644531 47.96875 C 4.886719 47.96875 2.644531 45.714844 2.644531 42.941406 L 2.644531 7.058594 C 2.644531 4.285156 4.886719 2.03125 7.644531 2.03125 L 156.355469 2.03125 M 156.355469 1.078125 L 7.644531 1.078125 C 4.371094 1.078125 1.695312 3.765625 1.695312 7.058594 L 1.695312 42.941406 C 1.695312 46.234375 4.371094 48.921875 7.644531 48.921875 L 156.355469 48.921875 C 159.628906 48.921875 162.304688 46.234375 162.304688 42.941406 L 162.304688 7.058594 C 162.304688 3.765625 159.628906 1.078125 156.355469 1.078125 Z M 156.355469 1.078125 "/>
<path style=" stroke:none;fill-rule:nonzero;fill:rgb(100%,100%,100%);fill-opacity:1;" d="M 82.757812 27.101562 C 79.957031 27.101562 77.675781 29.238281 77.675781 32.191406 C 77.675781 35.121094 79.957031 37.28125 82.757812 37.28125 C 85.558594 37.28125 87.839844 35.121094 87.839844 32.191406 C 87.832031 29.238281 85.558594 27.101562 82.757812 27.101562 Z M 82.757812 35.269531 C 81.222656 35.269531 79.90625 34 79.90625 32.191406 C 79.90625 30.359375 81.230469 29.109375 82.757812 29.109375 C 84.285156 29.109375 85.609375 30.359375 85.609375 32.191406 C 85.609375 34 84.292969 35.269531 82.757812 35.269531 Z M 71.675781 27.101562 C 68.875 27.101562 66.59375 29.238281 66.59375 32.191406 C 66.59375 35.121094 68.875 37.28125 71.675781 37.28125 C 74.476562 37.28125 76.757812 35.121094 76.757812 32.191406 C 76.757812 29.238281 74.476562 27.101562 71.675781 27.101562 Z M 71.675781 35.269531 C 70.140625 35.269531 68.824219 34 68.824219 32.191406 C 68.824219 30.359375 70.148438 29.109375 71.675781 29.109375 C 73.210938 29.109375 74.527344 30.359375 74.527344 32.191406 C 74.527344 34 73.210938 35.269531 71.675781 35.269531 Z M 58.5 28.65625 L 58.5 30.816406 L 63.632812 30.816406 C 63.476562 32.03125 63.078125 32.910156 62.464844 33.535156 C 61.71875 34.285156 60.550781 35.109375 58.5 35.109375 C 55.339844 35.109375 52.867188 32.550781 52.867188 29.363281 C 52.867188 26.179688 55.339844 23.617188 58.5 23.617188 C 60.203125 23.617188 61.445312 24.296875 62.371094 25.164062 L 63.886719 23.640625 C 62.601562 22.402344 60.898438 21.460938 58.5 21.460938 C 54.164062 21.460938 50.519531 25.003906 50.519531 29.363281 C 50.519531 33.726562 54.164062 37.269531 58.5 37.269531 C 60.835938 37.269531 62.601562 36.496094 63.980469 35.058594 C 65.402344 33.628906 65.84375 31.628906 65.84375 30.011719 C 65.84375 29.511719 65.800781 29.046875 65.730469 28.667969 L 58.5 28.667969 Z M 112.394531 30.339844 C 111.972656 29.207031 110.691406 27.101562 108.058594 27.101562 C 105.449219 27.101562 103.292969 29.164062 103.292969 32.191406 C 103.292969 35.046875 105.4375 37.28125 108.3125 37.28125 C 110.628906 37.28125 111.972656 35.851562 112.53125 35.027344 L 110.804688 33.863281 C 110.226562 34.710938 109.449219 35.269531 108.3125 35.269531 C 107.183594 35.269531 106.375 34.75 105.859375 33.726562 L 112.625 30.910156 Z M 105.5 32.03125 C 105.449219 30.0625 107.015625 29.070312 108.144531 29.070312 C 109.027344 29.070312 109.773438 29.511719 110.015625 30.148438 Z M 99.996094 36.964844 L 102.21875 36.964844 L 102.21875 22.011719 L 99.996094 22.011719 Z M 96.355469 28.234375 L 96.28125 28.234375 C 95.789062 27.640625 94.828125 27.101562 93.621094 27.101562 C 91.09375 27.101562 88.765625 29.332031 88.765625 32.210938 C 88.765625 35.070312 91.082031 37.28125 93.621094 37.28125 C 94.828125 37.28125 95.789062 36.742188 96.28125 36.128906 L 96.355469 36.128906 L 96.355469 36.855469 C 96.355469 38.804688 95.324219 39.839844 93.652344 39.839844 C 92.292969 39.839844 91.449219 38.855469 91.105469 38.03125 L 89.167969 38.835938 C 89.726562 40.179688 91.199219 41.839844 93.652344 41.839844 C 96.261719 41.839844 98.460938 40.296875 98.460938 36.539062 L 98.460938 27.40625 L 96.355469 27.40625 Z M 93.808594 35.269531 C 92.273438 35.269531 90.988281 33.980469 90.988281 32.199219 C 90.988281 30.414062 92.273438 29.101562 93.808594 29.101562 C 95.324219 29.101562 96.511719 30.414062 96.511719 32.199219 C 96.511719 33.980469 95.324219 35.269531 93.808594 35.269531 Z M 122.816406 22.011719 L 117.5 22.011719 L 117.5 36.964844 L 119.71875 36.964844 L 119.71875 31.300781 L 122.824219 31.300781 C 125.289062 31.300781 127.707031 29.511719 127.707031 26.65625 C 127.707031 23.800781 125.277344 22.011719 122.816406 22.011719 Z M 122.867188 29.21875 L 119.710938 29.21875 L 119.710938 24.09375 L 122.867188 24.09375 C 124.53125 24.09375 125.46875 25.480469 125.46875 26.65625 C 125.476562 27.808594 124.53125 29.21875 122.867188 29.21875 Z M 136.589844 27.070312 C 134.980469 27.070312 133.316406 27.777344 132.632812 29.355469 L 134.601562 30.179688 C 135.023438 29.355469 135.8125 29.078125 136.632812 29.078125 C 137.78125 29.078125 138.949219 29.765625 138.96875 31.003906 L 138.96875 31.164062 C 138.570312 30.929688 137.707031 30.582031 136.65625 30.582031 C 134.527344 30.582031 132.371094 31.757812 132.371094 33.945312 C 132.371094 35.945312 134.109375 37.238281 136.066406 37.238281 C 137.558594 37.238281 138.378906 36.5625 138.894531 35.777344 L 138.96875 35.777344 L 138.96875 36.929688 L 141.117188 36.929688 L 141.117188 31.195312 C 141.105469 28.550781 139.136719 27.070312 136.589844 27.070312 Z M 136.316406 35.257812 C 135.589844 35.257812 134.582031 34.890625 134.582031 33.988281 C 134.582031 32.835938 135.84375 32.390625 136.9375 32.390625 C 137.917969 32.390625 138.371094 32.601562 138.96875 32.890625 C 138.792969 34.285156 137.601562 35.257812 136.316406 35.257812 Z M 148.914062 27.398438 L 146.367188 33.882812 L 146.296875 33.882812 L 143.652344 27.398438 L 141.265625 27.398438 L 145.222656 36.453125 L 142.957031 41.492188 L 145.273438 41.492188 L 151.378906 27.386719 L 148.914062 27.386719 Z M 128.917969 36.964844 L 131.140625 36.964844 L 131.140625 22.011719 L 128.917969 22.011719 Z M 128.917969 36.964844 "/>
<path style=" stroke:none;fill-rule:nonzero;fill:url(#linear0);" d="M 14.105469 10.09375 C 13.757812 10.464844 13.558594 11.035156 13.558594 11.777344 L 13.558594 38.234375 C 13.558594 38.972656 13.757812 39.546875 14.105469 39.914062 L 14.191406 40 L 28.925781 25.183594 L 28.925781 24.824219 L 14.191406 10.011719 Z M 14.105469 10.09375 "/>
<path style=" stroke:none;fill-rule:nonzero;fill:url(#linear1);" d="M 33.851562 30.117188 L 28.933594 25.175781 L 28.933594 24.816406 L 33.851562 19.871094 L 33.964844 19.9375 L 39.785156 23.28125 C 41.449219 24.234375 41.449219 25.789062 39.785156 26.730469 L 33.964844 30.054688 Z M 33.851562 30.117188 "/>
<path style=" stroke:none;fill-rule:nonzero;fill:url(#linear2);" d="M 33.964844 30.054688 L 28.945312 25.003906 L 14.105469 39.90625 C 14.652344 40.488281 15.558594 40.5625 16.578125 39.980469 L 33.964844 30.054688 "/>
<path style=" stroke:none;fill-rule:nonzero;fill:url(#linear3);" d="M 33.964844 19.945312 L 16.578125 10.019531 C 15.558594 9.4375 14.652344 9.511719 14.105469 10.09375 L 28.933594 25.003906 Z M 33.964844 19.945312 "/>
<use xlink:href="#surface5" mask="url(#mask0)"/>
<use xlink:href="#surface8" mask="url(#mask1)"/>
<use xlink:href="#surface11" mask="url(#mask2)"/>
<use xlink:href="#surface14" mask="url(#mask3)"/>
<path style="fill-rule:nonzero;fill:rgb(100%,100%,100%);fill-opacity:1;stroke-width:0.2;stroke-linecap:butt;stroke-linejoin:miter;stroke:rgb(100%,100%,100%);stroke-opacity:1;stroke-miterlimit:10;" d="M 47.859799 15.710625 L 47.859799 8.929512 L 49.930827 8.929512 C 50.970053 8.929512 51.808857 9.23959 52.42868 9.87082 C 53.048504 10.498359 53.371407 11.310469 53.371407 12.318223 C 53.371407 13.318594 53.059639 14.141777 52.42868 14.769316 C 51.801433 15.400547 50.970053 15.710625 49.930827 15.710625 Z M 48.728295 14.880059 L 49.930827 14.880059 C 50.710247 14.880059 51.33007 14.658574 51.790299 14.208223 C 52.250527 13.761563 52.480642 13.130332 52.480642 12.329297 C 52.480642 11.528262 52.250527 10.900723 51.790299 10.450371 C 51.33007 10.00002 50.710247 9.771152 49.930827 9.771152 L 48.728295 9.771152 Z M 48.728295 14.880059 " transform="matrix(1.052466,0,0,1.058201,0.433862,0)"/>
<path style="fill-rule:nonzero;fill:rgb(100%,100%,100%);fill-opacity:1;stroke-width:0.2;stroke-linecap:butt;stroke-linejoin:miter;stroke:rgb(100%,100%,100%);stroke-opacity:1;stroke-miterlimit:10;" d="M 54.59992 15.710625 L 54.59992 8.929512 L 55.468416 8.929512 L 55.468416 15.710625 Z M 54.59992 15.710625 " transform="matrix(1.052466,0,0,1.058201,0.433862,0)"/>
<path style="fill-rule:nonzero;fill:rgb(100%,100%,100%);fill-opacity:1;stroke-width:0.2;stroke-linecap:butt;stroke-linejoin:miter;stroke:rgb(100%,100%,100%);stroke-opacity:1;stroke-miterlimit:10;" d="M 58.931264 15.858281 C 58.441343 15.858281 57.958846 15.699551 57.491194 15.378398 C 57.019831 15.060938 56.711775 14.610586 56.570737 14.019961 L 57.368714 13.698809 C 57.461502 14.071641 57.658213 14.389102 57.951423 14.640117 C 58.240921 14.898516 58.571246 15.020332 58.938687 15.020332 C 59.320974 15.020332 59.640164 14.920664 59.911105 14.721328 C 60.178335 14.518301 60.308238 14.248828 60.308238 13.909219 C 60.308238 13.529004 60.178335 13.241074 59.911105 13.030664 C 59.640164 12.820254 59.220763 12.628301 58.641765 12.458496 C 58.040499 12.270234 57.580271 12.030293 57.279637 11.731289 C 56.971581 11.428594 56.819409 11.048379 56.819409 10.57957 C 56.819409 10.088613 57.008696 9.671484 57.398406 9.309727 C 57.791827 8.95166 58.289171 8.770781 58.908995 8.770781 C 59.491704 8.770781 59.948221 8.911055 60.308238 9.198984 C 60.668255 9.490605 60.89837 9.800684 61.009715 10.140293 L 60.219162 10.468828 C 60.159777 10.258418 60.018739 10.059082 59.79976 9.87082 C 59.58078 9.689941 59.291281 9.601348 58.931264 9.601348 C 58.600939 9.601348 58.31144 9.689941 58.070191 9.878203 C 57.828942 10.070156 57.710174 10.299023 57.710174 10.57957 C 57.710174 10.830586 57.821519 11.048379 58.040499 11.218184 C 58.259479 11.39168 58.57867 11.55041 59.001783 11.690684 C 59.328397 11.801426 59.610472 11.901094 59.840586 12.000762 C 60.059566 12.10043 60.28968 12.240703 60.519795 12.399434 C 60.749909 12.569238 60.920639 12.779648 61.039407 13.030664 C 61.158176 13.28168 61.221272 13.569609 61.221272 13.901836 C 61.221272 14.230371 61.150753 14.518301 61.02085 14.780391 C 60.879812 15.038789 60.701659 15.241816 60.478968 15.400547 C 60.259988 15.548203 60.018739 15.67002 59.758933 15.75123 C 59.499127 15.82875 59.209628 15.858281 58.931264 15.858281 Z M 58.931264 15.858281 " transform="matrix(1.052466,0,0,1.058201,0.433862,0)"/>
<path style="fill-rule:nonzero;fill:rgb(100%,100%,100%);fill-opacity:1;stroke-width:0.2;stroke-linecap:butt;stroke-linejoin:miter;stroke:rgb(100%,100%,100%);stroke-opacity:1;stroke-miterlimit:10;" d="M 63.318281 15.710625 L 62.449785 15.710625 L 62.449785 8.929512 L 64.758351 8.929512 C 65.329925 8.929512 65.83098 9.121465 66.250382 9.50168 C 66.669784 9.878203 66.88134 10.361777 66.88134 10.948711 C 66.88134 11.528262 66.669784 12.011836 66.250382 12.388359 C 65.83098 12.768574 65.329925 12.960527 64.758351 12.960527 L 63.318281 12.960527 Z M 63.318281 12.129961 L 64.78062 12.129961 C 65.151772 12.129961 65.441271 12.011836 65.66025 11.76082 C 65.87923 11.509805 65.990576 11.240332 65.990576 10.948711 C 65.990576 10.649707 65.87923 10.380234 65.66025 10.140293 C 65.441271 9.889277 65.151772 9.771152 64.78062 9.771152 L 63.318281 9.771152 Z M 63.318281 12.129961 " transform="matrix(1.052466,0,0,1.058201,0.433862,0)"/>
<path style="fill-rule:nonzero;fill:rgb(100%,100%,100%);fill-opacity:1;stroke-width:0.2;stroke-linecap:butt;stroke-linejoin:miter;stroke:rgb(100%,100%,100%);stroke-opacity:1;stroke-miterlimit:10;" d="M 73.528673 14.839453 C 72.8606 15.529746 72.029219 15.869355 71.038243 15.869355 C 70.050979 15.869355 69.219598 15.529746 68.551525 14.839453 C 67.879739 14.160234 67.549414 13.318594 67.549414 12.329297 C 67.549414 11.34 67.879739 10.498359 68.551525 9.819141 C 69.219598 9.128848 70.039844 8.789238 71.038243 8.789238 C 72.029219 8.789238 72.849465 9.128848 73.52125 9.819141 C 74.189324 10.509434 74.519649 11.351074 74.519649 12.329297 C 74.530784 13.311211 74.189324 14.14916 73.528673 14.839453 Z M 69.201041 14.270977 C 69.698384 14.780391 70.318208 15.031406 71.038243 15.031406 C 71.769413 15.031406 72.381814 14.780391 72.879157 14.270977 C 73.380212 13.761563 73.628884 13.108184 73.628884 12.318223 C 73.628884 11.528262 73.380212 10.878574 72.879157 10.36916 C 72.381814 9.859746 71.758278 9.60873 71.038243 9.60873 C 70.310785 9.60873 69.698384 9.859746 69.201041 10.36916 C 68.699985 10.878574 68.451314 11.528262 68.451314 12.318223 C 68.440179 13.108184 68.699985 13.761563 69.201041 14.270977 Z M 69.201041 14.270977 " transform="matrix(1.052466,0,0,1.058201,0.433862,0)"/>
<path style="fill-rule:nonzero;fill:rgb(100%,100%,100%);fill-opacity:1;stroke-width:0.2;stroke-linecap:butt;stroke-linejoin:miter;stroke:rgb(100%,100%,100%);stroke-opacity:1;stroke-miterlimit:10;" d="M 75.748162 15.710625 L 75.748162 8.929512 L 76.809657 8.929512 L 80.109199 14.208223 L 80.150025 14.208223 L 80.109199 12.901465 L 80.109199 8.929512 L 80.981406 8.929512 L 80.981406 15.710625 L 80.068372 15.710625 L 76.62037 10.180898 L 76.579543 10.180898 L 76.62037 11.491348 L 76.62037 15.710625 Z M 75.748162 15.710625 " transform="matrix(1.052466,0,0,1.058201,0.433862,0)"/>
<path style="fill-rule:nonzero;fill:rgb(100%,100%,100%);fill-opacity:1;stroke-width:0.2;stroke-linecap:butt;stroke-linejoin:miter;stroke:rgb(100%,100%,100%);stroke-opacity:1;stroke-miterlimit:10;" d="M 82.52911 15.710625 L 82.52911 8.929512 L 83.401317 8.929512 L 83.401317 15.710625 Z M 82.52911 15.710625 " transform="matrix(1.052466,0,0,1.058201,0.433862,0)"/>
<path style="fill-rule:nonzero;fill:rgb(100%,100%,100%);fill-opacity:1;stroke-width:0.2;stroke-linecap:butt;stroke-linejoin:miter;stroke:rgb(100%,100%,100%);stroke-opacity:1;stroke-miterlimit:10;" d="M 84.960156 15.710625 L 84.960156 8.929512 L 87.409759 8.929512 C 87.940507 8.929512 88.400735 9.110391 88.790445 9.461074 C 89.180154 9.811758 89.369442 10.251035 89.369442 10.778906 C 89.369442 11.100059 89.2915 11.39168 89.12077 11.631621 C 88.95004 11.878945 88.73106 12.059824 88.448985 12.189023 L 88.448985 12.229629 C 88.77931 12.340371 89.061386 12.539707 89.269231 12.820254 C 89.480788 13.100801 89.588422 13.418262 89.588422 13.791094 C 89.588422 14.348496 89.391711 14.809922 88.979732 15.17168 C 88.571465 15.54082 88.088967 15.721699 87.539662 15.721699 L 84.960156 15.721699 Z M 85.828652 11.83834 L 87.409759 11.83834 C 87.740084 11.83834 87.999891 11.731289 88.200313 11.509805 C 88.400735 11.28832 88.500946 11.048379 88.500946 10.801055 C 88.500946 10.550039 88.400735 10.299023 88.211448 10.088613 C 88.018449 9.878203 87.758642 9.771152 87.450586 9.771152 L 85.828652 9.771152 Z M 85.828652 14.880059 L 87.580489 14.880059 C 87.910814 14.880059 88.189178 14.758242 88.389601 14.529375 C 88.601157 14.300508 88.701368 14.038418 88.701368 13.761563 C 88.701368 13.481016 88.590023 13.23 88.378466 13.001133 C 88.170621 12.768574 87.881122 12.650449 87.539662 12.650449 L 85.828652 12.650449 Z M 85.828652 14.880059 " transform="matrix(1.052466,0,0,1.058201,0.433862,0)"/>
<path style="fill-rule:nonzero;fill:rgb(100%,100%,100%);fill-opacity:1;stroke-width:0.2;stroke-linecap:butt;stroke-linejoin:miter;stroke:rgb(100%,100%,100%);stroke-opacity:1;stroke-miterlimit:10;" d="M 90.768685 15.710625 L 90.768685 8.929512 L 91.640892 8.929512 L 91.640892 14.880059 L 94.580416 14.880059 L 94.580416 15.710625 Z M 90.768685 15.710625 " transform="matrix(1.052466,0,0,1.058201,0.433862,0)"/>
<path style="fill-rule:nonzero;fill:rgb(100%,100%,100%);fill-opacity:1;stroke-width:0.2;stroke-linecap:butt;stroke-linejoin:miter;stroke:rgb(100%,100%,100%);stroke-opacity:1;stroke-miterlimit:10;" d="M 99.639219 9.760078 L 96.551234 9.760078 L 96.551234 11.908477 L 99.338585 11.908477 L 99.338585 12.720586 L 96.551234 12.720586 L 96.551234 14.868984 L 99.639219 14.868984 L 99.639219 15.699551 L 95.679026 15.699551 L 95.679026 8.929512 L 99.639219 8.929512 Z M 99.639219 9.760078 " transform="matrix(1.052466,0,0,1.058201,0.433862,0)"/>
<path style="fill-rule:nonzero;fill:rgb(100%,100%,100%);fill-opacity:1;stroke-width:0.2;stroke-linecap:butt;stroke-linejoin:miter;stroke:rgb(100%,100%,100%);stroke-opacity:1;stroke-miterlimit:10;" d="M 107.240412 9.760078 L 104.148716 9.760078 L 104.148716 11.908477 L 106.939779 11.908477 L 106.939779 12.720586 L 104.148716 12.720586 L 104.148716 14.868984 L 107.240412 14.868984 L 107.240412 15.699551 L 103.28022 15.699551 L 103.28022 8.929512 L 107.240412 8.929512 Z M 107.240412 9.760078 " transform="matrix(1.052466,0,0,1.058201,0.433862,0)"/>
<path style="fill-rule:nonzero;fill:rgb(100%,100%,100%);fill-opacity:1;stroke-width:0.2;stroke-linecap:butt;stroke-linejoin:miter;stroke:rgb(100%,100%,100%);stroke-opacity:1;stroke-miterlimit:10;" d="M 108.598829 15.710625 L 108.598829 8.929512 L 109.660323 8.929512 L 112.959865 14.208223 L 113.000692 14.208223 L 112.959865 12.901465 L 112.959865 8.929512 L 113.828361 8.929512 L 113.828361 15.710625 L 112.919038 15.710625 L 109.471036 10.180898 L 109.430209 10.180898 L 109.471036 11.491348 L 109.471036 15.710625 Z M 108.598829 15.710625 " transform="matrix(1.052466,0,0,1.058201,0.433862,0)"/>
</g>
</svg>
