<?xml version="1.0" encoding="UTF-8"?>
<svg xmlns="http://www.w3.org/2000/svg" xmlns:xlink="http://www.w3.org/1999/xlink" width="159px" height="100px" viewBox="0 0 158 100" version="1.1">
<g id="surface1">
<path style=" stroke:none;fill-rule:evenodd;fill:rgb(5.098039%,0%,23.137255%);fill-opacity:1;" d="M 31.457031 94 C 32.3125 94.570312 33.308594 94.855469 34.445312 94.855469 C 35.441406 94.855469 36.296875 94.714844 37.007812 94.285156 C 37.722656 93.855469 38.289062 93.429688 38.71875 92.714844 L 38.71875 94.570312 L 40.425781 94.570312 L 40.425781 77.855469 L 38.71875 77.855469 L 38.71875 84.570312 C 38.289062 83.855469 37.722656 83.429688 37.007812 83 C 36.296875 82.570312 35.441406 82.429688 34.445312 82.429688 C 33.308594 82.429688 32.3125 82.714844 31.457031 83.285156 C 30.605469 83.855469 29.890625 84.570312 29.464844 85.570312 C 29.039062 86.570312 28.753906 87.570312 28.753906 88.714844 C 28.753906 89.855469 29.039062 90.855469 29.464844 91.855469 C 30.035156 92.714844 30.605469 93.429688 31.457031 94 Z M 1.421875 99.429688 L 1.421875 82.714844 L 3.132812 82.714844 L 3.132812 84.570312 C 3.558594 83.855469 4.128906 83.429688 4.839844 83 C 5.550781 82.570312 6.40625 82.429688 7.402344 82.429688 C 8.539062 82.429688 9.535156 82.714844 10.390625 83.285156 C 11.246094 83.855469 11.957031 84.570312 12.382812 85.570312 C 12.8125 86.570312 13.09375 87.570312 13.09375 88.714844 C 13.09375 89.855469 12.8125 90.855469 12.382812 91.855469 C 11.957031 92.855469 11.246094 93.570312 10.390625 94.144531 C 9.535156 94.714844 8.539062 95 7.402344 95 C 6.40625 95 5.550781 94.855469 4.839844 94.429688 C 4.128906 94 3.558594 93.570312 3.132812 92.855469 L 3.132812 99.570312 Z M 7.117188 93.144531 C 7.972656 93.144531 8.683594 93 9.394531 92.570312 C 9.964844 92.144531 10.535156 91.570312 10.816406 90.855469 C 11.101562 90.144531 11.246094 89.429688 11.246094 88.570312 C 11.246094 87.714844 11.101562 87 10.816406 86.285156 C 10.535156 85.570312 9.964844 85 9.394531 84.570312 C 8.824219 84.144531 7.972656 84 7.117188 84 C 6.261719 84 5.550781 84.144531 4.839844 84.570312 C 4.269531 85 3.699219 85.570312 3.417969 86.285156 C 3.132812 87 2.988281 87.714844 2.988281 88.570312 C 2.988281 89.429688 3.132812 90.144531 3.417969 90.855469 C 3.699219 91.570312 4.128906 92.144531 4.839844 92.570312 C 5.550781 93 6.261719 93.144531 7.117188 93.144531 Z M 17.507812 94 C 18.363281 94.570312 19.359375 94.855469 20.496094 94.855469 C 21.492188 94.855469 22.347656 94.714844 23.058594 94.285156 C 23.769531 93.855469 24.339844 93.429688 24.765625 92.714844 L 24.765625 94.570312 L 26.476562 94.570312 L 26.476562 82.570312 L 24.765625 82.570312 L 24.765625 84.570312 C 24.339844 83.855469 23.769531 83.429688 23.058594 83 C 22.347656 82.570312 21.492188 82.429688 20.496094 82.429688 C 19.359375 82.429688 18.363281 82.714844 17.507812 83.285156 C 16.652344 83.855469 15.941406 84.570312 15.515625 85.570312 C 15.089844 86.570312 14.804688 87.570312 14.804688 88.714844 C 14.804688 89.855469 15.089844 90.855469 15.515625 91.855469 C 15.941406 92.714844 16.652344 93.429688 17.507812 94 Z M 20.640625 93.144531 C 21.492188 93.144531 22.207031 93 22.917969 92.570312 C 23.488281 92.144531 23.914062 91.570312 24.339844 90.855469 C 24.625 90.144531 24.765625 89.429688 24.765625 88.570312 C 24.765625 87.714844 24.625 87 24.339844 86.285156 C 24.054688 85.570312 23.628906 85 22.917969 84.570312 C 22.347656 84.144531 21.636719 84 20.640625 84 C 19.785156 84 19.074219 84.144531 18.363281 84.570312 C 17.792969 85 17.222656 85.570312 16.9375 86.285156 C 16.652344 87 16.511719 87.714844 16.511719 88.570312 C 16.511719 89.429688 16.652344 90.144531 16.9375 90.855469 C 17.222656 91.570312 17.792969 92.144531 18.363281 92.570312 C 19.074219 93 19.785156 93.144531 20.640625 93.144531 Z M 34.730469 93.144531 C 35.585938 93.144531 36.296875 93 37.007812 92.570312 C 37.578125 92.144531 38.003906 91.570312 38.433594 90.855469 C 38.71875 90.144531 38.859375 89.429688 38.859375 88.570312 C 38.859375 87.714844 38.71875 87 38.433594 86.285156 C 38.148438 85.570312 37.722656 85 37.007812 84.570312 C 36.441406 84.144531 35.726562 84 34.730469 84 C 33.878906 84 33.164062 84.144531 32.453125 84.570312 C 31.882812 85 31.316406 85.570312 31.03125 86.285156 C 30.746094 87 30.605469 87.714844 30.605469 88.570312 C 30.605469 89.429688 30.746094 90.144531 31.03125 90.855469 C 31.316406 91.570312 31.882812 92.144531 32.453125 92.570312 C 33.164062 93 33.878906 93.144531 34.730469 93.144531 Z M 45.691406 94 C 46.546875 94.570312 47.683594 94.855469 48.824219 94.855469 C 50.246094 94.855469 51.386719 94.570312 52.238281 93.855469 C 53.09375 93.144531 53.804688 92.285156 54.234375 91.285156 L 52.238281 91.285156 C 51.953125 91.855469 51.527344 92.429688 50.957031 92.714844 C 50.390625 93.144531 49.675781 93.285156 48.824219 93.285156 C 47.96875 93.285156 47.398438 93.144531 46.6875 92.714844 C 46.117188 92.429688 45.550781 91.855469 45.265625 91.285156 C 44.980469 90.714844 44.695312 90 44.554688 89.285156 L 54.515625 89.285156 L 54.515625 88.570312 C 54.515625 87.429688 54.234375 86.429688 53.804688 85.429688 C 53.378906 84.429688 52.667969 83.714844 51.8125 83.144531 C 50.957031 82.570312 49.960938 82.285156 48.679688 82.285156 C 47.542969 82.285156 46.402344 82.570312 45.550781 83.144531 C 44.695312 83.714844 43.984375 84.429688 43.558594 85.429688 C 43.128906 86.429688 42.84375 87.429688 42.84375 88.570312 C 42.84375 89.714844 43.128906 90.714844 43.558594 91.714844 C 44.125 92.714844 44.835938 93.429688 45.691406 94 Z M 44.695312 87.714844 L 52.667969 87.714844 C 52.523438 86.714844 52.097656 85.855469 51.386719 85.144531 C 50.675781 84.429688 49.820312 84.144531 48.679688 84.144531 C 47.542969 84.144531 46.6875 84.429688 45.976562 85.144531 C 45.265625 85.855469 44.835938 86.714844 44.695312 87.714844 Z M 57.078125 77.855469 L 57.078125 94.570312 L 58.503906 94.570312 L 58.503906 77.855469 Z M 61.632812 94.570312 L 61.632812 82.570312 L 63.34375 82.570312 L 63.34375 84.429688 C 63.628906 84 64.054688 83.429688 64.625 83 C 65.191406 82.570312 66.046875 82.285156 66.902344 82.285156 C 67.753906 82.285156 68.464844 82.429688 69.035156 82.855469 C 69.746094 83.285156 70.175781 83.855469 70.601562 84.714844 C 70.746094 84.429688 71.027344 84.144531 71.3125 83.714844 C 71.597656 83.285156 72.167969 83 72.59375 82.714844 C 73.164062 82.429688 73.875 82.285156 74.585938 82.285156 C 75.300781 82.285156 76.011719 82.429688 76.722656 82.855469 C 77.433594 83.285156 77.859375 83.855469 78.289062 84.570312 C 78.714844 85.285156 78.859375 86.144531 78.859375 87.144531 L 78.859375 94.429688 L 77.148438 94.429688 L 77.148438 87.285156 C 77.148438 86.285156 76.863281 85.429688 76.296875 84.855469 C 75.726562 84.285156 75.015625 84 74.160156 84 C 73.304688 84 72.59375 84.285156 71.882812 84.855469 C 71.3125 85.429688 70.886719 86.285156 70.886719 87.285156 L 70.886719 94.429688 L 69.179688 94.429688 L 69.179688 87.285156 C 69.179688 86.285156 68.894531 85.429688 68.324219 84.855469 C 67.753906 84.285156 67.042969 84 66.1875 84 C 65.335938 84 64.625 84.285156 63.910156 84.855469 C 63.34375 85.429688 62.914062 86.285156 62.914062 87.285156 L 62.914062 94.429688 Z M 87.113281 94.855469 C 85.976562 94.855469 84.976562 94.570312 84.125 94 C 83.269531 93.429688 82.558594 92.714844 82.132812 91.714844 C 81.703125 90.714844 81.417969 89.714844 81.417969 88.570312 C 81.417969 87.429688 81.703125 86.429688 82.132812 85.429688 C 82.558594 84.429688 83.269531 83.714844 84.125 83.144531 C 84.976562 82.570312 85.976562 82.285156 87.113281 82.285156 C 88.109375 82.285156 88.964844 82.429688 89.675781 82.855469 C 90.386719 83.285156 90.957031 83.714844 91.382812 84.429688 L 91.382812 82.429688 L 93.09375 82.429688 L 93.09375 94.429688 L 91.382812 94.429688 L 91.382812 92.570312 C 90.957031 93.144531 90.386719 93.714844 89.675781 94.144531 C 88.964844 94.570312 88.109375 94.855469 87.113281 94.855469 Z M 89.535156 92.570312 C 88.964844 93 88.253906 93.144531 87.253906 93.144531 C 86.402344 93.144531 85.691406 93 84.976562 92.570312 C 84.410156 92.144531 83.839844 91.570312 83.554688 90.855469 C 83.269531 90.144531 83.128906 89.429688 83.128906 88.570312 C 83.128906 87.714844 83.269531 87 83.554688 86.285156 C 83.839844 85.570312 84.410156 85 84.976562 84.570312 C 85.546875 84.144531 86.402344 84 87.253906 84 C 88.109375 84 88.820312 84.144531 89.535156 84.570312 C 90.101562 85 90.53125 85.570312 90.957031 86.285156 C 91.242188 87 91.382812 87.714844 91.382812 88.570312 C 91.382812 89.429688 91.242188 90.144531 90.957031 90.855469 C 90.671875 91.570312 90.246094 92.144531 89.535156 92.570312 Z M 96.222656 82.714844 L 97.929688 82.714844 L 97.929688 84.570312 C 98.359375 84 98.929688 83.570312 99.496094 83.144531 C 100.066406 82.714844 100.921875 82.570312 101.917969 82.570312 C 102.769531 82.570312 103.484375 82.714844 104.195312 83.144531 C 104.90625 83.570312 105.476562 84.144531 105.902344 84.855469 C 106.328125 85.570312 106.613281 86.570312 106.613281 87.714844 L 106.613281 94.714844 L 104.90625 94.714844 L 104.90625 87.714844 C 104.90625 86.570312 104.621094 85.714844 104.050781 85.144531 C 103.484375 84.429688 102.628906 84.144531 101.632812 84.144531 C 100.921875 84.144531 100.351562 84.285156 99.78125 84.570312 C 99.210938 84.855469 98.785156 85.285156 98.5 85.855469 C 98.214844 86.429688 98.074219 87 98.074219 87.714844 L 98.074219 94.570312 L 96.367188 94.570312 Z M 111.597656 94 C 112.449219 94.570312 113.445312 94.855469 114.585938 94.855469 C 115.582031 94.855469 116.4375 94.714844 117.148438 94.285156 C 117.859375 93.855469 118.429688 93.429688 118.855469 92.714844 L 118.855469 94.570312 L 120.5625 94.570312 L 120.5625 82.570312 L 118.855469 82.570312 L 118.855469 84.570312 C 118.429688 83.855469 117.859375 83.429688 117.148438 83 C 116.4375 82.570312 115.582031 82.429688 114.585938 82.429688 C 113.445312 82.429688 112.449219 82.714844 111.597656 83.285156 C 110.742188 83.855469 110.03125 84.570312 109.605469 85.570312 C 109.175781 86.570312 108.890625 87.570312 108.890625 88.714844 C 108.890625 89.855469 109.175781 90.855469 109.605469 91.855469 C 110.03125 92.714844 110.742188 93.429688 111.597656 94 Z M 114.726562 93.144531 C 115.582031 93.144531 116.292969 93 117.003906 92.570312 C 117.574219 92.144531 118 91.570312 118.429688 90.855469 C 118.714844 90.144531 118.855469 89.429688 118.855469 88.570312 C 118.855469 87.714844 118.714844 87 118.429688 86.285156 C 118.144531 85.570312 117.71875 85 117.003906 84.570312 C 116.4375 84.144531 115.722656 84 114.726562 84 C 113.875 84 113.164062 84.144531 112.449219 84.570312 C 111.882812 85 111.3125 85.570312 111.027344 86.285156 C 110.742188 87 110.601562 87.714844 110.601562 88.570312 C 110.601562 89.429688 110.742188 90.144531 111.027344 90.855469 C 111.3125 91.570312 111.882812 92.144531 112.449219 92.570312 C 113.164062 93 113.875 93.144531 114.726562 93.144531 Z M 125.402344 98.570312 C 126.398438 99.285156 127.539062 99.570312 128.960938 99.570312 C 130.671875 99.570312 132.09375 99.144531 133.089844 98.144531 C 134.085938 97.285156 134.511719 95.855469 134.511719 94.144531 L 134.511719 82.570312 L 132.804688 82.570312 L 132.804688 84.429688 C 132.378906 83.714844 131.808594 83.285156 131.097656 82.855469 C 130.386719 82.429688 129.53125 82.285156 128.535156 82.285156 C 127.394531 82.285156 126.398438 82.570312 125.546875 83.144531 C 124.691406 83.714844 123.980469 84.429688 123.554688 85.285156 C 123.125 86.144531 122.839844 87.285156 122.839844 88.429688 C 122.839844 89.570312 123.125 90.570312 123.554688 91.570312 C 123.980469 92.429688 124.691406 93.285156 125.546875 93.714844 C 126.398438 94.285156 127.394531 94.570312 128.535156 94.570312 C 129.53125 94.570312 130.386719 94.429688 131.097656 94 C 131.808594 93.570312 132.378906 93.144531 132.804688 92.429688 L 132.804688 94.144531 C 132.804688 95.429688 132.519531 96.285156 131.808594 97 C 131.238281 97.714844 130.242188 98 128.820312 98 C 127.964844 98 127.113281 97.855469 126.542969 97.570312 C 125.972656 97.285156 125.546875 96.714844 125.261719 96.144531 L 123.269531 96.144531 C 123.835938 97.144531 124.40625 98 125.402344 98.570312 Z M 128.820312 93 C 129.675781 93 130.386719 92.855469 131.097656 92.429688 C 131.667969 92 132.234375 91.429688 132.519531 90.855469 C 132.804688 90.144531 132.949219 89.429688 132.949219 88.570312 C 132.949219 87.714844 132.804688 87 132.519531 86.285156 C 132.234375 85.570312 131.667969 85.144531 131.097656 84.714844 C 130.527344 84.285156 129.816406 84.144531 128.820312 84.144531 C 127.964844 84.144531 127.253906 84.285156 126.542969 84.714844 C 125.972656 85.144531 125.402344 85.714844 125.117188 86.285156 C 124.835938 87 124.691406 87.714844 124.691406 88.570312 C 124.691406 89.429688 124.835938 90.144531 125.117188 90.855469 C 125.402344 91.570312 125.972656 92.144531 126.542969 92.429688 C 127.253906 92.855469 127.964844 93 128.820312 93 Z M 139.78125 94 C 140.632812 94.570312 141.773438 94.855469 142.910156 94.855469 C 144.335938 94.855469 145.472656 94.570312 146.328125 93.855469 C 147.183594 93.144531 147.894531 92.285156 148.320312 91.285156 L 146.328125 91.285156 C 146.042969 91.855469 145.617188 92.429688 145.046875 92.714844 C 144.476562 93.144531 143.765625 93.285156 142.910156 93.285156 C 142.058594 93.285156 141.488281 93.144531 140.777344 92.714844 C 140.207031 92.429688 139.636719 91.855469 139.351562 91.285156 C 139.070312 90.714844 138.785156 90 138.640625 89.285156 L 148.605469 89.285156 L 148.605469 88.570312 C 148.605469 87.429688 148.320312 86.429688 147.894531 85.429688 C 147.464844 84.429688 146.753906 83.714844 145.902344 83.144531 C 145.046875 82.570312 144.050781 82.285156 142.769531 82.285156 C 141.628906 82.285156 140.492188 82.570312 139.636719 83.144531 C 138.785156 83.714844 138.070312 84.429688 137.644531 85.429688 C 137.21875 86.429688 136.933594 87.429688 136.933594 88.570312 C 136.933594 89.714844 137.21875 90.714844 137.644531 91.714844 C 138.214844 92.714844 138.925781 93.429688 139.78125 94 Z M 138.785156 87.714844 L 146.753906 87.714844 C 146.613281 86.714844 146.1875 85.855469 145.472656 85.144531 C 144.761719 84.429688 143.90625 84.144531 142.769531 84.144531 C 141.628906 84.144531 140.777344 84.429688 140.066406 85.144531 C 139.351562 85.855469 138.925781 86.714844 138.785156 87.714844 Z M 152.589844 82.714844 L 150.882812 82.714844 L 150.882812 94.714844 L 152.589844 94.714844 L 152.589844 89.429688 C 152.589844 88.570312 152.734375 87.714844 153.160156 87 C 153.445312 86.285156 154.015625 85.570312 154.582031 85.144531 C 155.152344 84.714844 156.007812 84.429688 156.859375 84.429688 L 157.003906 84.429688 L 157.003906 82.570312 L 156.859375 82.570312 C 156.148438 82.570312 155.582031 82.714844 155.011719 83 C 154.441406 83.285156 154.015625 83.570312 153.730469 83.855469 C 153.445312 84.144531 153.160156 84.570312 152.875 84.855469 L 152.449219 85.714844 L 152.449219 82.714844 Z M 152.589844 82.714844 "/>
<path style=" stroke:none;fill-rule:evenodd;fill:rgb(43.137255%,87.058824%,16.078431%);fill-opacity:1;" d="M 100.921875 2.144531 C 98.785156 0 95.371094 0 93.09375 2.144531 L 40.28125 55.144531 L 46.117188 60.570312 C 48.394531 62.714844 51.953125 62.570312 54.089844 60.429688 L 96.222656 18.144531 L 115.011719 37 L 107.324219 44.714844 L 96.792969 34.144531 L 86.257812 44.144531 L 101.917969 59.855469 C 104.90625 62.855469 109.746094 62.855469 112.734375 59.855469 L 135.652344 36.855469 Z M 100.921875 2.144531 "/>
<path style=" stroke:none;fill-rule:evenodd;fill:rgb(5.098039%,0%,23.137255%);fill-opacity:1;" d="M 70.601562 8.570312 L 36.296875 43 C 34.164062 45.144531 30.746094 45.144531 28.46875 43 L 22.0625 36.570312 L 56.367188 2.144531 C 58.503906 0 61.917969 0 64.195312 2.144531 Z M 70.601562 8.570312 "/>
</g>
</svg>
